<svg width="49" height="42" viewBox="0 0 49 42" fill="none" xmlns="http://www.w3.org/2000/svg">
<path d="M24.8008 0.800781C12.8546 0.800781 0.800782 2.72727 0.800781 7.03131C0.800781 7.19449 0.825555 7.36452 0.862257 7.5235C3.037 15.34 8.88369 21.4185 16.2072 24.1354L11.3165 39.1899C11.1652 39.6563 11.247 40.1712 11.5352 40.5677C11.8233 40.9642 12.2878 41.2009 12.7781 41.2009H14.5144C15.1826 41.2009 15.7697 40.7744 15.976 40.1389L18.4673 32.4698C19.7647 32.51 21.0947 32.5351 22.444 32.5499V35.7011C22.444 36.5372 23.1244 37.218 23.9609 37.218H25.6484C26.4848 37.218 27.1653 36.5372 27.1653 35.7011V32.5498C28.5087 32.5349 29.8355 32.5099 31.1343 32.4698L33.6256 40.1389C33.8319 40.7744 34.419 41.2009 35.0872 41.2009H36.8158C37.306 41.2009 37.7706 40.9642 38.0587 40.5669C38.3469 40.1704 38.4283 39.6555 38.277 39.1899L33.385 24.131C40.5955 21.4509 46.3921 15.5104 48.6294 7.87391C48.7366 7.61137 48.8008 7.31523 48.8008 7.03131C48.8008 2.72727 36.747 0.800781 24.8008 0.800781ZM10.673 3.4375L9.81505 4.63761H7.84389L8.55413 3.86538C9.20975 3.71472 9.91581 3.57155 10.673 3.4375ZM13.1686 3.05482C13.1843 3.05573 13.1975 3.06384 13.2134 3.06384H14.7062L13.9018 4.63761H11.7496L12.8498 3.09852C12.9563 3.08402 13.0605 3.06898 13.1686 3.05482ZM41.0481 3.86557L41.758 4.63761H39.7865L38.9286 3.4375C39.686 3.57159 40.3923 3.71491 41.0481 3.86557ZM10.6245 6.21139H13.0973L12.2928 7.78516H9.49946L10.6245 6.21139ZM7.565 7.78516H4.94898L6.39644 6.21139H8.69005L7.565 7.78516ZM14.865 6.21139H17.4858L17.0033 7.78516H14.0605L14.865 6.21139ZM23.7516 3.06384H25.8502L26.0116 4.63761H23.5901L23.7516 3.06384ZM22.0084 4.63761H19.6143L20.0968 3.06384H22.1698L22.0084 4.63761ZM27.432 3.06384H29.5048L29.9873 4.63761H27.5934L27.432 3.06384ZM31.1508 3.06384H33.1276L33.932 4.63761H31.6333L31.1508 3.06384ZM18.4508 3.06384L17.9683 4.63761H15.6695L16.474 3.06384H18.4508ZM19.1317 6.21139H21.847L21.6856 7.78516H18.6492L19.1317 6.21139ZM23.4288 6.21139H26.173L26.3344 7.78516H23.2674L23.4288 6.21139ZM27.7548 6.21139H30.4698L30.9523 7.78516H27.9161L27.7548 6.21139ZM32.1158 6.21139H34.7365L35.541 7.78516H32.5983L32.1158 6.21139ZM36.5043 6.21139H38.977L40.1019 7.78516H37.3087L36.5043 6.21139ZM40.9114 6.21139H43.2051L44.6522 7.78516H42.0364L40.9114 6.21139ZM47.2248 7.02678C47.2219 7.11242 47.1979 7.19984 47.1675 7.27928C47.1043 7.44382 46.9852 7.61293 46.79 7.78516L45.3427 6.21139H46.802C47.0758 6.48702 47.2195 6.7577 47.2248 7.02678ZM36.7518 3.09852L37.852 4.63761H35.6998L34.8953 3.06384H36.3881C36.404 3.06384 36.4173 3.05573 36.4329 3.05482C36.5411 3.06898 36.6453 3.08402 36.7518 3.09852ZM4.25882 6.21139C4.25882 6.21139 2.81136 7.78516 2.79777 7.78516C2.61287 7.60957 2.49212 7.4372 2.43012 7.26963C2.40042 7.18935 2.37756 7.10142 2.37652 7.01546C2.38204 6.7577 2.52574 6.48702 2.79955 6.21139H4.25882ZM6.43995 9.35893L6.34903 9.4861C6.21436 9.44398 6.08262 9.40158 5.95439 9.35893H6.43995ZM8.37446 9.35893H11.4883L10.8736 10.5616C9.81019 10.3697 8.83932 10.1595 7.9606 9.9378L8.37446 9.35893ZM13.2561 9.35893H16.5207L15.9394 11.255C14.7234 11.1342 13.5749 10.9919 12.5038 10.8305L13.2561 9.35893ZM18.1667 9.35893H21.5241L21.2932 11.6108C19.9862 11.564 18.7338 11.4923 17.5414 11.3984L18.1667 9.35893ZM23.1059 9.35893H26.4957L26.731 11.6534C26.098 11.6656 25.4569 11.6739 24.8008 11.6739C24.1446 11.6739 23.5036 11.6656 22.8706 11.6534L23.1059 9.35893ZM28.3084 11.6108L28.0775 9.35893H31.4348L32.0601 11.3984C30.8677 11.4922 29.6153 11.564 28.3084 11.6108ZM33.6621 11.255L33.0807 9.35893H36.3454L37.0977 10.8306C36.0266 10.9919 34.8781 11.1343 33.6621 11.255ZM38.728 10.5616L38.1132 9.35893H41.2269L41.6407 9.9379C40.7621 10.1596 39.7913 10.3697 38.728 10.5616ZM43.2523 9.4862L43.1613 9.35893H43.6472C43.5188 9.40162 43.3871 9.44403 43.2523 9.4862ZM14.5144 39.6271L12.8135 39.6755L17.7004 24.6327C18.2041 24.784 18.7115 24.9235 19.2265 25.043L14.5144 39.6271ZM28.8257 25.3634L29.6145 27.7914C28.8059 27.81 27.9881 27.8238 27.1653 27.8329V25.5708C27.7224 25.5169 28.2778 25.4544 28.8257 25.3634ZM25.5915 27.8444C25.0644 27.8465 24.54 27.8466 24.0177 27.8449V25.6633C24.2793 25.6716 24.5377 25.696 24.8008 25.696C25.0663 25.696 25.3275 25.6717 25.5915 25.6632V27.8444ZM22.444 27.8344C21.6049 27.8257 20.783 27.8126 19.986 27.7948L20.7759 25.3633C21.3264 25.4542 21.8839 25.5195 22.444 25.5732V27.8344ZM25.5915 35.6443H24.0177V32.5626C24.2804 32.5636 24.5372 32.569 24.8008 32.569C25.0664 32.569 25.3266 32.5635 25.5915 32.5626V35.6443ZM18.9745 30.9085L19.4784 29.3574C21.1567 29.3989 22.9404 29.4214 24.8008 29.4214C26.5991 29.4214 28.382 29.3963 30.1214 29.3519L30.6271 30.9085C26.8107 31.0151 22.7621 31.0151 18.9745 30.9085ZM36.8158 39.6271L35.1225 39.6532L30.3758 25.0412C30.8884 24.9218 31.393 24.7814 31.8945 24.6303L36.8158 39.6271ZM24.8008 24.1222C15.4231 24.1222 7.02978 18.4369 3.42011 10.0169C7.61389 12.1471 16.2447 13.2476 24.8008 13.2476C33.3465 13.2476 41.9663 12.1496 46.1656 10.0244C42.547 18.4421 34.1382 24.1222 24.8008 24.1222ZM9.48995 14.793C9.56333 14.8733 9.55757 14.9978 9.47765 15.0711C9.43961 15.1057 9.39235 15.1226 9.34471 15.1226C9.2913 15.1226 9.23828 15.1011 9.19948 15.0588C8.84561 14.6716 8.50019 14.2643 8.17245 13.8474C8.1056 13.7621 8.1202 13.6384 8.20588 13.5711C8.28925 13.5047 8.4149 13.5185 8.48213 13.6046C8.80334 14.0134 9.14261 14.4134 9.48995 14.793ZM12.3728 17.408C12.4596 17.4733 12.4773 17.5966 12.4123 17.6835C12.3735 17.735 12.3144 17.7622 12.2548 17.7622C12.2137 17.7622 12.1722 17.7495 12.1368 17.723C11.7157 17.4072 11.3004 17.071 10.9023 16.7237C10.8205 16.6522 10.8121 16.5277 10.8835 16.4459C10.955 16.3637 11.0791 16.356 11.1613 16.4271C11.5517 16.7682 11.9593 17.0983 12.3728 17.408ZM15.6905 19.4432C15.7881 19.4912 15.8281 19.6092 15.78 19.7068C15.7458 19.7763 15.6763 19.8167 15.6037 19.8167C15.5745 19.8167 15.5449 19.8101 15.5168 19.7967C15.045 19.5646 14.5747 19.3114 14.119 19.0432C14.0253 18.9883 13.9938 18.8676 14.0491 18.7743C14.1041 18.6798 14.2259 18.6502 14.3181 18.7043C14.7657 18.9671 15.2275 19.2157 15.6905 19.4432Z" fill="#9CA3AF"/>
</svg>
