<svg width="40" height="42" viewBox="0 0 40 42" fill="none" xmlns="http://www.w3.org/2000/svg">
<path d="M39.7558 18.2115L32.8073 14.9163L37.9257 9.15846C38.0086 9.06529 38.0466 8.94049 38.03 8.81697C38.0133 8.69346 37.9432 8.58362 37.8389 8.51566L32.8731 5.29954L33.0466 4.95549C33.094 4.86146 33.1051 4.7529 33.0774 4.65118L32.8547 3.83273C32.8043 3.64639 32.635 3.51731 32.4423 3.51731H32.0922V3.31772C32.0922 3.19762 32.0418 3.08308 31.9533 3.00231C31.8644 2.92153 31.7448 2.88264 31.6259 2.89204C31.6225 2.89247 31.4524 2.90828 31.2896 2.91341C31.2298 2.7027 31.1468 2.36891 31.081 2.08085C31.0485 1.93853 30.9451 1.82313 30.8075 1.77441C30.6694 1.72611 30.5156 1.75047 30.4006 1.8398C30.322 1.90092 30.1301 2.01802 29.9689 2.04879C29.9467 1.98639 29.9271 1.88596 29.9245 1.80689C29.9198 1.62354 29.7988 1.46327 29.6236 1.40899C29.4484 1.35428 29.2582 1.41796 29.1509 1.56712L28.491 2.46208L24.7958 0.0686871C24.5988 -0.0591031 24.3342 -0.0035421 24.2056 0.193486L20.7971 5.4098L16.889 1.85989C16.7651 1.74706 16.5864 1.71757 16.4322 1.78381L2.75904 7.68609C2.62868 7.74251 2.53466 7.86004 2.50859 7.99937C2.48252 8.1387 2.52739 8.28273 2.62826 8.38231L5.78711 11.5001L0.176736 15.5642C0.0698882 15.642 0.00449726 15.7647 0.000223339 15.8963C-0.00405058 16.0284 0.05322 16.1549 0.154512 16.2395L4.20704 19.5967L2.1936 22.0042C2.07991 22.1396 2.06196 22.332 2.14829 22.4862C2.2342 22.641 2.40687 22.7264 2.5821 22.7017L2.99795 22.6422V23.1855C2.99795 23.3757 3.12403 23.5436 3.30695 23.5962C3.49116 23.6488 3.68605 23.574 3.78734 23.4128C3.82581 23.3513 3.86556 23.2902 3.90488 23.2295C3.9006 23.406 3.89505 23.5876 3.88778 23.7582C3.88222 23.8885 3.9365 24.0142 4.03523 24.0992C4.13353 24.1847 4.26559 24.2215 4.39338 24.1962L5.12508 24.0595L5.23492 24.7903C5.25971 24.954 5.37639 25.0886 5.53452 25.1365C5.57512 25.1485 5.61615 25.1545 5.65761 25.1545C5.68112 25.1545 5.70206 25.1442 5.72514 25.1404V30.9345C5.72514 31.0614 5.78155 31.1815 5.879 31.2632L17.4955 40.9462C17.4998 40.95 17.5049 40.9509 17.5096 40.9543C17.5173 40.9603 17.5229 40.9671 17.5306 40.9727C17.5511 40.9863 17.5742 40.994 17.5964 41.0034C17.6096 41.0098 17.622 41.0175 17.6357 41.0222C17.6784 41.0363 17.7229 41.0449 17.7678 41.0453C17.7682 41.0453 17.7686 41.0453 17.769 41.0453C17.8233 41.0453 17.878 41.0351 17.9302 41.0137L22.1592 39.2922C22.1596 39.2917 22.1601 39.2917 22.1605 39.2917L32.5487 35.0623C32.7098 34.9969 32.8149 34.84 32.8149 34.6665V21.8281L39.7344 18.9932C39.8908 18.9291 39.9951 18.7786 39.9998 18.6094C40.0045 18.4401 39.9084 18.2837 39.7558 18.2115ZM17.3417 39.705L13.6943 36.665V33.0394L17.3417 35.611V39.705ZM17.8417 20.3873L7.16545 11.7762L20.4535 6.68429V19.327L17.8417 20.3873ZM21.3083 6.95312L31.2733 14.9359L21.3083 18.9804V6.95312ZM24.6881 1.0175L36.9559 8.96229L32.0597 14.4705L21.451 5.97225L24.6881 1.0175ZM16.5185 2.67749L20.0795 5.91242L6.58249 11.0843L3.68007 8.21948L16.5185 2.67749ZM6.30511 12.181L17.1284 20.9105L12.5745 25.419L1.12426 15.933L6.30511 12.181ZM6.57992 24.3411L8.01254 22.7491L12.3275 26.3238C12.407 26.3892 12.5036 26.4217 12.6002 26.4217C12.7091 26.4217 12.8181 26.3798 12.901 26.2982L17.3417 21.9024V34.5643L13.5131 31.8654C13.3827 31.7735 13.2122 31.7619 13.0699 31.8354C12.928 31.909 12.8391 32.0556 12.8391 32.215V35.9525L6.57992 30.7336V24.3411ZM18.1964 35.6768L21.566 34.3079V38.6105L18.1964 39.9824V35.6768ZM31.9602 34.3789L22.4212 38.2626V33.6728C22.4212 33.5305 22.3507 33.3976 22.2327 33.3185C22.1143 33.2386 21.9652 33.2236 21.8331 33.2766L18.1969 34.7537V22.3538L20.7484 26.3892C20.8287 26.5166 20.9672 26.5884 21.11 26.5884C21.1642 26.5884 21.2194 26.5781 21.2719 26.5567L31.9606 22.1781L31.9602 34.3789ZM32.223 21.1464C32.2217 21.1472 32.2204 21.1477 32.2196 21.1481L21.2796 25.6297L18.4037 21.0814L32.0965 15.5245L38.5155 18.5688L32.223 21.1464Z" fill="white"/>
<path d="M24.9017 32.8733L27.3959 31.8578V28.8375L28.667 28.3203L26.1492 25.2734L23.6016 30.3821L24.9017 29.8423V32.8733Z" fill="white"/>
</svg>
