<svg width="36" height="48" viewBox="0 0 36 48" fill="none" xmlns="http://www.w3.org/2000/svg">
<path d="M0.0703125 0.581818V47.4182C0.0703125 47.7399 0.330967 48 0.652131 48H34.543C34.8642 48 35.1249 47.7399 35.1249 47.4182V0.581818C35.1249 0.260073 34.8642 0 34.543 0H0.652131C0.330967 0 0.0703125 0.260073 0.0703125 0.581818ZM33.9612 11.0545V24.1937H32.2827V18.8724C32.2827 18.5507 32.022 18.2906 31.7009 18.2906H31.5188V15.122C31.6392 15.0156 31.7189 14.8649 31.7189 14.6909V13.0543C31.7189 12.7325 31.4582 12.4724 31.1371 12.4724H28.8825C28.5614 12.4724 28.3007 12.7325 28.3007 13.0543V14.6909C28.3007 14.8649 28.3804 15.0161 28.5009 15.122V18.2906H28.3188C27.9976 18.2906 27.7369 18.5507 27.7369 18.8724V24.1937H26.1427V18.8724C26.1427 18.5507 25.8821 18.2906 25.5609 18.2906H25.3788V15.122C25.4993 15.0156 25.579 14.8649 25.579 14.6909V13.0543C25.579 12.7325 25.3183 12.4724 24.9972 12.4724H22.7426C22.4214 12.4724 22.1608 12.7325 22.1608 13.0543V14.6909C22.1608 14.8649 22.2405 15.0161 22.3609 15.122V18.2906H22.1788C21.8577 18.2906 21.597 18.5507 21.597 18.8724V24.1937H20.0028V18.8724C20.0028 18.5507 19.7422 18.2906 19.421 18.2906H19.2389V15.122C19.3593 15.0156 19.439 14.8649 19.439 14.6909V13.0543C19.439 12.7325 19.1784 12.4724 18.8572 12.4724H16.6027C16.2815 12.4724 16.0209 12.7325 16.0209 13.0543V14.6909C16.0209 14.8649 16.1006 15.0161 16.221 15.122V18.2906H16.0389C15.7177 18.2906 15.4571 18.5507 15.4571 18.8724V24.1937H13.8629V18.8724C13.8629 18.5507 13.6022 18.2906 13.2811 18.2906H13.099V15.122C13.2194 15.0156 13.2991 14.8649 13.2991 14.6909V13.0543C13.2991 12.7325 13.0385 12.4724 12.7173 12.4724H10.4645C10.1433 12.4724 9.88268 12.7325 9.88268 13.0543V14.6909C9.88268 14.8649 9.96239 15.0161 10.0828 15.122V18.2906H9.90071C9.57955 18.2906 9.3189 18.5507 9.3189 18.8724V24.1937H7.72471V18.8724C7.72471 18.5507 7.46406 18.2906 7.14289 18.2906H6.96078V15.122C7.08122 15.0156 7.16093 14.8649 7.16093 14.6909V13.0543C7.16093 12.7325 6.90028 12.4724 6.57911 12.4724H4.32457C4.0034 12.4724 3.74275 12.7325 3.74275 13.0543V14.6909C3.74275 14.8649 3.82246 15.0161 3.94289 15.122V18.2906H3.76078C3.43962 18.2906 3.17897 18.5507 3.17897 18.8724V24.1937H1.23337V11.0545H33.9612ZM31.119 19.4548V24.1094H28.9006V19.4548H29.0827H30.9375H31.119ZM30.5553 14.1091H29.4644V13.6361H30.5553V14.1091ZM29.6645 15.2727H30.3557V18.2912H29.6645V15.2727ZM24.9797 19.4548V24.1094H22.7612V19.4548H22.9433H24.7982H24.9797ZM24.4159 14.1091H23.325V13.6361H24.4159V14.1091ZM23.5252 15.2727H24.2164V18.2912H23.5252V15.2727ZM16.6219 19.4548H16.804H18.6588H18.8409V24.1094H16.6225L16.6219 19.4548ZM18.2766 14.1091H17.1857V13.6361H18.2766V14.1091ZM17.3858 15.2727H18.077V18.2912H17.3858V15.2727ZM12.7004 19.4548V24.1094H10.4819V19.4548H10.6641H12.5189H12.7004ZM12.1372 14.1091H11.0463V13.6361H12.1372V14.1091ZM11.2459 15.2727H11.9371V18.2912H11.2459V15.2727ZM6.56108 19.4548V24.1094H4.3426V19.4548H4.52471H6.37955H6.56108ZM5.99788 14.1091H4.90697V13.6361H5.99788V14.1091ZM5.10653 15.2727H5.79773V18.2912H5.10653V15.2727ZM1.23395 25.3574H17.0158V46.8364H1.23395V25.3574ZM18.1794 46.8364V25.3574H33.9612V46.8364H18.1794ZM33.9612 1.16364V9.89091H29.1508V9.33236H30.0962C30.4174 9.33236 30.678 9.07229 30.678 8.75055V8.54051C31.6479 8.34095 32.3478 7.66254 32.3478 6.82531C32.3478 5.98516 31.6479 5.30385 30.678 5.10429V3.54909C30.678 3.22734 30.4174 2.96727 30.0962 2.96727H26.9427C26.6216 2.96727 26.3609 3.22734 26.3609 3.54909V8.75055C26.3609 9.07229 26.6216 9.33236 26.9427 9.33236H27.9871V9.89091H20.7144V9.33236H21.6238C21.9449 9.33236 22.2056 9.07229 22.2056 8.75055V8.54051C23.1755 8.34095 23.8754 7.66254 23.8754 6.82531C23.8754 5.98516 23.1755 5.30385 22.2056 5.10429V3.54909C22.2056 3.22734 21.9449 2.96727 21.6238 2.96727H18.4703C18.1492 2.96727 17.8885 3.22734 17.8885 3.54909V8.75055C17.8885 9.07229 18.1492 9.33236 18.4703 9.33236H19.5508V9.89091H12.8598V9.16364H13.6965C14.0177 9.16364 14.2783 8.90356 14.2783 8.58182V8.37178C15.2482 8.17222 15.9481 7.49382 15.9481 6.65658C15.9481 5.81644 15.2482 5.13513 14.2783 4.93556V3.38036C14.2783 3.05862 14.0177 2.79855 13.6965 2.79855H10.543C10.2219 2.79855 9.96122 3.05862 9.96122 3.38036V8.58182C9.96122 8.90356 10.2219 9.16364 10.543 9.16364H11.6962V9.89091H5.58711V9.16364H6.58202C6.90319 9.16364 7.16384 8.90356 7.16384 8.58182V8.37178C8.13373 8.17222 8.83366 7.49382 8.83366 6.65658C8.83366 5.81644 8.13373 5.13513 7.16384 4.93556V3.38036C7.16384 3.05862 6.90319 2.79855 6.58202 2.79855H3.42857C3.1074 2.79855 2.84675 3.05862 2.84675 3.38036V8.58182C2.84675 8.90356 3.1074 9.16364 3.42857 9.16364H4.42348V9.89091H1.23395V1.16364H33.9612ZM30.678 6.30749C30.987 6.42793 31.1842 6.63389 31.1842 6.82531C31.1842 7.0144 30.987 7.21862 30.678 7.33789V6.30749ZM29.5144 5.62036V8.02327V8.16873H27.5246V4.13091H29.5144V5.62036ZM22.2056 6.30749C22.5145 6.42793 22.7118 6.63389 22.7118 6.82531C22.7118 7.0144 22.5145 7.21862 22.2056 7.33789V6.30749ZM21.042 5.62036V8.02327V8.16873H19.0521V4.13091H21.042V5.62036ZM14.2783 6.13876C14.5873 6.2592 14.7845 6.46516 14.7845 6.65658C14.7845 6.84567 14.5873 7.04989 14.2783 7.16916V6.13876ZM13.1147 5.45164V7.85455V8H11.1249V3.96218H13.1147V5.45164ZM7.16384 6.13876C7.47279 6.2592 7.67002 6.46516 7.67002 6.65658C7.67002 6.84567 7.47279 7.04989 7.16384 7.16916V6.13876ZM6.0002 5.45164V7.85455V8H4.01039V3.96218H6.0002V5.45164Z" fill="#9CA3AF"/>
<path d="M14.906 33.8164C14.5849 33.8164 14.3242 34.0765 14.3242 34.3982V38.6891C14.3242 39.0109 14.5849 39.271 14.906 39.271C15.2272 39.271 15.4879 39.0109 15.4879 38.6891V34.3982C15.4879 34.0765 15.2272 33.8164 14.906 33.8164Z" fill="#9CA3AF"/>
<path d="M20.9412 33.8164C20.62 33.8164 20.3594 34.0765 20.3594 34.3982V38.6891C20.3594 39.0109 20.62 39.271 20.9412 39.271C21.2624 39.271 21.523 39.0109 21.523 38.6891V34.3982C21.523 34.0765 21.2624 33.8164 20.9412 33.8164Z" fill="#9CA3AF"/>
</svg>
