<svg width="49" height="28" viewBox="0 0 49 28" fill="none" xmlns="http://www.w3.org/2000/svg">
<path d="M34.7722 6.19215H4.51062C4.17607 6.19215 3.90234 5.91843 3.90234 5.58388V3.58874C3.90234 3.25419 4.17607 2.98047 4.51062 2.98047H34.7722C35.1068 2.98047 35.3805 3.25419 35.3805 3.58874V5.58388C35.3805 5.91843 35.1068 6.19215 34.7722 6.19215ZM5.11889 4.9756H34.1639V4.19702H5.11889V4.9756Z" fill="#9CA3AF"/>
<path d="M8.53154 19.4195C8.41596 19.4195 8.30039 19.383 8.20307 19.3222C8.06316 19.231 7.96584 19.085 7.93543 18.9207L5.50234 5.69079C5.44151 5.36233 5.66049 5.04602 5.98895 4.9852C6.31742 4.92437 6.63372 5.14335 6.69455 5.47182L9.01207 18.0692L30.9403 12.7893L32.9415 5.41707C33.0267 5.09469 33.3673 4.90004 33.6897 4.99128C34.0121 5.07644 34.2067 5.41099 34.1155 5.73946L32.017 13.4584C31.9561 13.6713 31.7858 13.8356 31.5729 13.8903L8.66535 19.4013C8.61669 19.4134 8.56803 19.4195 8.52545 19.4195H8.53154Z" fill="#9CA3AF"/>
<path d="M26.8989 24.3285C26.1507 24.3285 25.4877 23.9088 25.1653 23.2154L21.6738 15.7762C21.5339 15.472 21.6616 15.1071 21.9658 14.9672C22.2699 14.8212 22.6349 14.955 22.7748 15.2591L26.2662 22.7044C26.467 23.1363 26.8745 23.1241 27.0023 23.1119C27.1239 23.0998 27.5254 23.0146 27.6166 22.5402L29.3989 13.5316C29.4658 13.2032 29.7821 12.9842 30.1166 13.0511C30.4451 13.118 30.658 13.4343 30.5972 13.7628L28.8149 22.7713C28.6507 23.6046 27.9998 24.2129 27.1543 24.3163C27.0692 24.3285 26.9901 24.3285 26.9049 24.3285H26.8989Z" fill="#9CA3AF"/>
<path d="M34.7756 12.0803H32.0809C31.7464 12.0803 31.4727 11.8066 31.4727 11.472C31.4727 11.1375 31.7464 10.8638 32.0809 10.8638H34.4775L42.896 0.231144C43.0116 0.0851589 43.188 0 43.3705 0H48.1941C48.5286 0 48.8024 0.273723 48.8024 0.608273C48.8024 0.942823 48.5286 1.21655 48.1941 1.21655H43.6624L35.244 11.8492C35.1284 11.9951 34.952 12.0803 34.7695 12.0803H34.7756Z" fill="#9CA3AF"/>
<path d="M5.75821 27.0984C3.02098 27.0984 0.800781 24.8722 0.800781 22.141C0.800781 19.4099 3.02706 17.1836 5.75821 17.1836C8.48935 17.1836 10.7156 19.4099 10.7156 22.141C10.7156 24.8722 8.48935 27.0984 5.75821 27.0984ZM5.75821 18.4001C3.69616 18.4001 2.01733 20.079 2.01733 22.141C2.01733 24.2031 3.69616 25.8819 5.75821 25.8819C7.82025 25.8819 9.49909 24.2031 9.49909 22.141C9.49909 20.079 7.82025 18.4001 5.75821 18.4001Z" fill="#9CA3AF"/>
<path d="M5.75893 24.4593C4.48155 24.4593 3.44141 23.4191 3.44141 22.1417C3.44141 20.8644 4.48155 19.8242 5.75893 19.8242C7.0363 19.8242 8.07645 20.8644 8.07645 22.1417C8.07645 23.4191 7.0363 24.4593 5.75893 24.4593ZM5.75893 21.0408C5.15065 21.0408 4.65795 21.5335 4.65795 22.1417C4.65795 22.75 5.15065 23.2427 5.75893 23.2427C6.3672 23.2427 6.8599 22.75 6.8599 22.1417C6.8599 21.5335 6.3672 21.0408 5.75893 21.0408Z" fill="#9CA3AF"/>
</svg>
