<svg width="57" height="48" viewBox="0 0 57 48" fill="none" xmlns="http://www.w3.org/2000/svg">
<path d="M22.0272 43.8626H7.58668L5.60845 30.8203C5.54414 30.3967 5.14354 30.1029 4.72287 30.1696C4.29867 30.2333 4.00663 30.6292 4.07153 31.0546L6.14888 44.7576C6.20669 45.1369 6.53296 45.4172 6.91763 45.4172H22.0272C22.4567 45.4172 22.8042 45.0697 22.8042 44.6408C22.8048 44.2101 22.4567 43.8626 22.0272 43.8626Z" fill="#9CA3AF"/>
<path d="M25.8371 28.8948C25.8371 28.4653 25.489 28.1184 25.0601 28.1184H2.33196V25.5473H25.9126C26.3427 25.5473 26.6902 25.1992 26.6902 24.7708C26.6902 24.3407 26.3421 23.9932 25.9126 23.9932H15.1383C15.1571 23.9254 15.1801 23.8587 15.1801 23.785V21.3554C16.4144 21.333 19.7585 21.0604 21.9414 18.8769C24.6076 16.2102 24.4264 11.8378 24.4176 11.6531C24.3975 11.2543 24.0778 10.9351 23.6789 10.9144C23.6789 10.9144 23.5798 10.9097 23.4004 10.9097C22.3532 10.9097 18.7555 11.0885 16.4545 13.39C15.9235 13.9216 15.5088 14.521 15.1801 15.1417V2.55494C15.1801 2.12543 14.832 1.77734 14.4031 1.77734C13.9742 1.77734 13.6255 2.12543 13.6255 2.55494V9.99584C13.2969 9.37635 12.8821 8.77634 12.3517 8.24535C10.0502 5.94382 6.45244 5.76505 5.40462 5.76505C5.22645 5.76505 5.12792 5.76977 5.12792 5.76977C4.72909 5.79042 4.40872 6.1102 4.38925 6.50844C4.3804 6.69251 4.19928 11.0655 6.86425 13.7322C9.04898 15.9163 12.3954 16.1883 13.6255 16.2096V23.7844C13.6255 23.8581 13.6485 23.9248 13.668 23.9926H1.55495C1.12544 23.9926 0.777344 24.3407 0.777344 24.7702V28.8948C0.777344 29.3249 1.12603 29.6724 1.55495 29.6724H25.0601C25.489 29.6724 25.8371 29.3249 25.8371 28.8948ZM17.5543 14.4886C19.1455 12.8968 21.5939 12.5487 22.85 12.4797C22.7786 13.7139 22.4305 16.1895 20.8429 17.7772C19.2505 19.3689 16.8014 19.717 15.5453 19.7861C15.6144 18.5542 15.9589 16.0839 17.5543 14.4886ZM7.9634 12.6331C6.37633 11.0454 6.02824 8.56984 5.95685 7.33559C7.21353 7.40521 9.6608 7.7533 11.2526 9.34449C12.8402 10.9321 13.1877 13.4077 13.2591 14.642C12.0042 14.5724 9.55519 14.2254 7.9634 12.6331Z" fill="#9CA3AF"/>
<path d="M50.1058 4.91983C50.1046 4.86615 50.0863 4.816 50.0739 4.76408C50.0621 4.71806 50.0603 4.67027 50.0415 4.62779C50.022 4.58413 49.9878 4.54932 49.9612 4.50979C49.9317 4.46731 49.9081 4.4213 49.8709 4.38531C49.8479 4.36289 49.8173 4.3505 49.7901 4.33103C49.7341 4.28855 49.6792 4.24666 49.6125 4.22011C49.6102 4.21952 49.609 4.21716 49.606 4.21598C49.5801 4.20595 49.5541 4.21067 49.5282 4.20359C49.4639 4.18648 49.4013 4.16406 49.3311 4.16406C49.3246 4.16406 49.3187 4.1676 49.3116 4.16819C49.2609 4.16937 49.2155 4.18707 49.1665 4.1971C49.1169 4.2089 49.065 4.21185 49.019 4.2325C48.9641 4.25669 48.9199 4.29563 48.8727 4.33103C48.8414 4.35463 48.806 4.37056 48.7783 4.39829C48.7376 4.44018 48.711 4.49386 48.6798 4.54519C48.6573 4.58118 48.6296 4.61186 48.6137 4.6508C48.6107 4.65729 48.6048 4.66142 48.6031 4.66732C48.5854 4.71629 48.5883 4.76585 48.5806 4.81482C48.5724 4.85729 48.5547 4.89623 48.5547 4.94107C48.5547 4.94756 48.557 4.95228 48.557 4.95759C48.5588 5.01541 48.5771 5.06733 48.5913 5.1222C48.6025 5.16763 48.6042 5.21542 48.6237 5.25671C48.6402 5.29506 48.6709 5.32574 48.6933 5.36114C48.7258 5.40834 48.7512 5.45967 48.7925 5.49861C48.8196 5.52516 48.8568 5.54109 48.8886 5.56292C48.9399 5.5995 48.9889 5.63785 49.0485 5.66145C49.0538 5.66381 49.0568 5.66852 49.0621 5.67029C49.1429 5.69979 49.2302 5.71336 49.3128 5.71513C49.3193 5.71513 49.3252 5.71867 49.3317 5.71867C49.3476 5.71867 49.3618 5.71041 49.3777 5.70923C49.4521 5.70451 49.524 5.69094 49.5931 5.66616C49.6279 5.65377 49.6591 5.63667 49.6916 5.61956C49.7382 5.59478 49.7819 5.56587 49.8243 5.53106C49.8538 5.50628 49.8828 5.48209 49.9087 5.45259C49.9412 5.41601 49.9653 5.37412 49.9907 5.33046C50.0137 5.2927 50.0385 5.25849 50.0544 5.2166C50.055 5.21483 50.0562 5.21306 50.0574 5.21129C50.0651 5.19241 50.0615 5.17294 50.0674 5.15347C50.0875 5.08444 50.1099 5.01659 50.1099 4.94048C50.1099 4.93281 50.1058 4.92691 50.1058 4.91983Z" fill="#9CA3AF"/>
<path d="M52.9116 4.92514C52.9105 4.86261 52.8916 4.80479 52.8756 4.7452C52.865 4.70685 52.8633 4.66496 52.8479 4.62956C52.8302 4.59062 52.8007 4.55994 52.7771 4.52395C52.7453 4.47499 52.7181 4.42366 52.6762 4.38295C52.6597 4.36702 52.6373 4.35876 52.6184 4.3446C52.5571 4.29504 52.4939 4.24961 52.4184 4.2207C52.4166 4.22011 52.4143 4.21775 52.4125 4.21657C52.3877 4.20772 52.3641 4.21126 52.3393 4.20477C52.2739 4.18707 52.209 4.16406 52.137 4.16406C52.1299 4.16406 52.124 4.1676 52.1181 4.1676C52.0703 4.16878 52.0284 4.18589 51.983 4.19474C51.9293 4.20654 51.8727 4.21067 51.8231 4.23309C51.7806 4.25138 51.7464 4.28383 51.7075 4.31038C51.6656 4.34047 51.619 4.36348 51.5824 4.40006C51.5499 4.4331 51.5305 4.47676 51.5045 4.51569C51.4732 4.56112 51.4384 4.60242 51.4178 4.65434C51.4154 4.65906 51.4113 4.6626 51.4101 4.66732C51.396 4.70508 51.4001 4.74461 51.3918 4.78296C51.3794 4.83547 51.3594 4.88443 51.3594 4.94107C51.3594 4.94874 51.3635 4.95464 51.3647 4.96231C51.3653 5.0042 51.3794 5.04196 51.3877 5.08267C51.4001 5.14403 51.4054 5.20598 51.4308 5.26085C51.4402 5.28209 51.4591 5.2986 51.4697 5.31984C51.5069 5.38533 51.5464 5.44964 51.6001 5.50156C51.6213 5.52221 51.6514 5.53401 51.675 5.5523C51.7322 5.59478 51.7877 5.63667 51.8556 5.66263C51.8597 5.66499 51.8632 5.66912 51.8679 5.67089C51.9452 5.69861 52.0278 5.70982 52.1051 5.71277C52.1157 5.71277 52.1246 5.71926 52.137 5.71926C52.1511 5.71926 52.1647 5.71159 52.18 5.71041C52.2556 5.70569 52.3281 5.69212 52.3978 5.66734C52.4355 5.65437 52.4686 5.63608 52.504 5.6172C52.547 5.59419 52.5883 5.56764 52.6255 5.53637C52.6579 5.50923 52.6892 5.48327 52.7175 5.45023C52.7476 5.41601 52.7706 5.37589 52.7942 5.33518C52.8172 5.29683 52.8432 5.26202 52.8585 5.21955C52.8603 5.21719 52.8621 5.21542 52.8627 5.21306C52.8733 5.1871 52.8692 5.15996 52.8756 5.13341C52.891 5.07087 52.9128 5.01069 52.9128 4.94225C52.9146 4.93576 52.9116 4.93045 52.9116 4.92514Z" fill="#9CA3AF"/>
<path d="M48.5473 6.21537C48.1425 6.0602 47.6924 6.27024 47.5443 6.66671C47.3968 7.07085 47.5986 7.5216 48.0027 7.66968C48.0883 7.70095 48.1815 7.71629 48.267 7.71629C48.5856 7.71629 48.8812 7.52986 48.998 7.21127C49.1538 6.80713 48.9437 6.36346 48.5473 6.21537Z" fill="#9CA3AF"/>
<path d="M55.5159 0.051378C55.1112 -0.103788 54.6604 0.105656 54.5135 0.502716C54.3648 0.906856 54.5678 1.3576 54.9714 1.50569C55.0569 1.53696 55.1501 1.5523 55.2357 1.5523C55.5549 1.5523 55.8498 1.36586 55.9667 1.04727C56.1218 0.642543 55.9124 0.198874 55.5159 0.051378Z" fill="#9CA3AF"/>
<path d="M48.2103 2.7512C48.2953 2.78247 48.3885 2.79781 48.4746 2.79781C48.7932 2.79781 49.0888 2.61079 49.205 2.29278C49.3602 1.88864 49.1502 1.44497 48.7543 1.29748C48.349 1.14231 47.8982 1.35176 47.7513 1.74823C47.6038 2.15237 47.8056 2.60371 48.2103 2.7512Z" fill="#9CA3AF"/>
<path d="M46.7969 4.21537C46.3928 4.0602 45.942 4.27024 45.7945 4.66671C45.6464 5.07085 45.8488 5.5216 46.253 5.66968C46.3385 5.70095 46.4317 5.71629 46.5167 5.71629C46.8353 5.71629 47.1309 5.52986 47.2477 5.21127C47.4028 4.80654 47.1928 4.36287 46.7969 4.21537Z" fill="#9CA3AF"/>
<path d="M55.2074 4.21537C54.8033 4.0602 54.3525 4.27024 54.2044 4.66671C54.0569 5.07085 54.2587 5.5216 54.6635 5.66968C54.7484 5.70095 54.8422 5.71629 54.9272 5.71629C55.2458 5.71629 55.5414 5.52986 55.6582 5.21127C55.8139 4.80654 55.6039 4.36287 55.2074 4.21537Z" fill="#9CA3AF"/>
<path d="M51.446 7.29772C51.0407 7.14196 50.5899 7.352 50.443 7.74847C50.2949 8.15261 50.4967 8.60394 50.9015 8.75144C50.9864 8.78271 51.0796 8.79805 51.1652 8.79805C51.4838 8.79805 51.7788 8.61162 51.8956 8.29302C52.0513 7.88829 51.8419 7.44521 51.446 7.29772Z" fill="#9CA3AF"/>
<path d="M51.8576 2.18076C51.9036 2.18076 51.9502 2.17309 51.9968 2.16483C52.4169 2.08755 52.6965 1.68341 52.6187 1.26393C52.5408 0.843857 52.1372 0.563614 51.7095 0.642082C51.2894 0.71937 51.0098 1.1241 51.0871 1.54358C51.1573 1.91645 51.4835 2.18076 51.8576 2.18076Z" fill="#9CA3AF"/>
<path d="M45.4519 15.5854C39.9892 14.7536 38.5053 11.4461 38.1336 10.1835L43.5533 7.0159C43.7922 6.87666 43.9385 6.6212 43.9385 6.34508V3.54088C43.9385 3.15031 43.6489 2.81992 43.2606 2.76977L30.7535 1.15085C30.5193 1.12017 30.2726 1.20218 30.1021 1.37446L25.7244 5.79817C25.4418 6.0849 25.4235 6.54037 25.6843 6.84775L28.1817 9.79355L29.1422 14.4586C29.2284 14.8786 29.636 15.1524 30.0602 15.0633C30.4803 14.9772 30.7511 14.5653 30.665 14.1453L29.6638 9.28616C29.6372 9.15872 29.5794 9.04014 29.4956 8.94043L27.3315 6.38638L30.9364 2.74263L42.3845 4.22468V5.90023L36.8575 9.13099C36.5873 9.28911 36.438 9.59472 36.4793 9.90564C36.5129 10.1511 37.3767 15.9294 45.2182 17.1241C45.2572 17.13 45.2979 17.133 45.3362 17.133C45.7144 17.133 46.0448 16.8574 46.1038 16.4722C46.1681 16.0462 45.8766 15.6503 45.4519 15.5854Z" fill="#9CA3AF"/>
<path d="M37.5059 23.5176C37.3177 22.3229 37.4446 21.8621 37.4965 21.7335C37.5519 21.7011 37.6039 21.6615 37.6505 21.6155L38.1337 21.1394C38.6074 20.6733 38.6316 20.0703 38.6316 19.9541V18.8969C38.6316 17.9918 37.9083 17.5039 37.2292 17.5039H27.8726C27.4431 17.5039 27.0956 17.852 27.0956 18.2809C27.0956 18.7104 27.4437 19.0579 27.8726 19.0579L37.077 19.0591L37.0776 19.9305C37.074 19.9653 37.0569 20.0167 37.0422 20.0314L36.6664 20.4019C36.1926 20.6538 35.6026 21.4285 35.9737 23.7884L40.1367 44.9046C40.1662 45.1099 40.1733 45.7229 39.8623 46.081C39.6535 46.3229 39.2918 46.4456 38.7897 46.4456H26.941C26.7233 46.4421 26.0908 46.3542 25.7775 45.9825C25.5775 45.7447 25.5144 45.3843 25.584 44.9365L29.8898 22.6226C29.9724 22.2008 29.6957 21.7931 29.2744 21.7123C28.8484 21.6314 28.4449 21.907 28.3635 22.3282L24.0524 44.6686C23.8672 45.848 24.2477 46.586 24.5999 46.9973C25.433 47.9719 26.7847 48.0002 26.9357 48.0002H38.7897C40.011 48.0002 40.6924 47.5035 41.0482 47.0869C41.873 46.1211 41.6972 44.8137 41.6689 44.6385L37.5059 23.5176Z" fill="#9CA3AF"/>
</svg>
