<svg width="41" height="46" viewBox="0 0 41 46" fill="none" xmlns="http://www.w3.org/2000/svg">
<path d="M9.80517 43.9597C9.80517 43.6686 10.0405 43.4333 10.3316 43.4333C10.6226 43.4333 10.858 43.6686 10.858 43.9597V44.7484C10.858 45.0933 10.7178 45.4059 10.4897 45.6305C10.4771 45.6431 10.4645 45.6539 10.4519 45.6665C10.2291 45.8713 9.9327 45.9988 9.60932 45.9988H5.46992C5.12677 45.9988 4.81594 45.8587 4.58777 45.6305H4.58597C4.35959 45.4042 4.21946 45.0915 4.21946 44.7484V43.9597C4.21946 43.6686 4.45481 43.4333 4.74585 43.4333C5.03689 43.4333 5.27225 43.6686 5.27225 43.9597V44.7484C5.27225 44.8023 5.29381 44.8508 5.33154 44.8867H5.32974C5.36567 44.9226 5.41418 44.9442 5.46808 44.9442H9.60748C9.65419 44.9442 9.69731 44.928 9.73145 44.9011L9.74403 44.8885C9.77996 44.8526 9.80152 44.8041 9.80152 44.7502V43.9615L9.80517 43.9597ZM12.2971 16.5127C12.6834 16.6672 13.0355 16.8935 13.3337 17.1738C13.6302 17.4559 13.8763 17.7955 14.0506 18.1745C14.2051 17.7865 14.4315 17.4343 14.7135 17.1379C14.9956 16.8415 15.3352 16.5953 15.7143 16.421C15.3262 16.2665 14.974 16.0402 14.6758 15.7581C14.3794 15.4778 14.1332 15.1382 13.959 14.7592C13.8045 15.1472 13.5781 15.4994 13.296 15.7958C13.014 16.0922 12.6744 16.3384 12.2971 16.5127ZM12.9708 17.5547C12.5468 17.154 11.9952 16.8864 11.3844 16.8216C11.3215 16.8145 11.264 16.7875 11.2209 16.748L11.2011 16.7282C11.1562 16.6797 11.1275 16.6132 11.1257 16.5414C11.1239 16.4749 11.1454 16.4138 11.1832 16.3635L11.194 16.3509C11.2371 16.2988 11.3018 16.2593 11.3718 16.2485V16.2503C11.9773 16.1533 12.5145 15.8569 12.9151 15.4329C13.3176 15.0089 13.5835 14.4555 13.6482 13.8447C13.6554 13.7728 13.6895 13.7081 13.7398 13.6614C13.7847 13.6201 13.8422 13.5949 13.9069 13.586H13.9267C14.0003 13.5824 14.0668 13.6075 14.1189 13.6506L14.1225 13.6542C14.1746 13.6973 14.2105 13.7602 14.2213 13.8303C14.3183 14.4358 14.613 14.9748 15.0387 15.3772C15.4627 15.7778 16.0161 16.0455 16.6251 16.1102C16.6988 16.1174 16.7635 16.1516 16.8084 16.2019C16.8533 16.2504 16.8821 16.3168 16.8839 16.3887V16.3905C16.8856 16.4624 16.8605 16.5288 16.8174 16.5809C16.7743 16.6331 16.7132 16.6708 16.6413 16.6816C16.0359 16.7786 15.4969 17.0732 15.0944 17.499C14.692 17.923 14.4261 18.4764 14.3614 19.0854C14.3524 19.1591 14.3201 19.222 14.2697 19.2687C14.223 19.3118 14.1637 19.3387 14.0973 19.3441H14.0811C14.0074 19.3477 13.941 19.3226 13.8871 19.2776C13.835 19.2345 13.7954 19.1698 13.7865 19.0998C13.6894 18.4943 13.3948 17.9571 12.969 17.5547L12.9708 17.5547ZM9.038 21.2611C9.42427 21.4156 9.77642 21.642 10.0746 21.9241C10.3711 22.2043 10.6172 22.5457 10.7915 22.923C10.946 22.5367 11.1724 22.1846 11.4544 21.8863C11.7365 21.5899 12.0761 21.3438 12.4534 21.1695C12.0671 21.015 11.715 20.7886 11.4167 20.5065C11.1203 20.2245 10.8741 19.8849 10.6999 19.5058C10.5454 19.8939 10.319 20.246 10.0369 20.5425C9.75486 20.8407 9.41528 21.085 9.038 21.2593V21.2611ZM9.71171 22.3049C9.28771 21.9025 8.73615 21.6366 8.12531 21.5719C8.06242 21.5665 8.00493 21.5395 7.96181 21.5L7.94205 21.4803C7.89893 21.4353 7.87378 21.3743 7.86659 21.3078L7.8648 21.2916C7.863 21.2251 7.88456 21.1641 7.92229 21.1137L7.93307 21.1012C7.97619 21.0491 8.04086 21.0095 8.11094 21.0006C8.71639 20.9035 9.2536 20.6089 9.65424 20.1831C10.0567 19.7591 10.3226 19.2058 10.3873 18.5967C10.3945 18.5231 10.4286 18.4602 10.4771 18.4135C10.522 18.3721 10.5813 18.3452 10.646 18.338L10.6658 18.3362C10.7322 18.3326 10.7933 18.3542 10.8436 18.3901L10.8598 18.4027C10.9119 18.4458 10.9514 18.5105 10.9604 18.5805C11.0574 19.186 11.3521 19.7232 11.7778 20.1257C12.2019 20.5263 12.7534 20.794 13.3643 20.8587C13.4379 20.8659 13.5008 20.9 13.5475 20.9503C13.5924 21.0006 13.623 21.0653 13.623 21.139C13.6248 21.2001 13.6068 21.2575 13.5745 21.3061C13.5691 21.3132 13.5619 21.3222 13.5565 21.3294C13.5134 21.3815 13.4505 21.4192 13.3786 21.43C12.7732 21.527 12.2342 21.8217 11.8317 22.2475C11.4293 22.6715 11.1634 23.2248 11.0987 23.8357C11.0915 23.9093 11.0574 23.9722 11.0071 24.0189C10.9567 24.0638 10.8921 24.0926 10.8202 24.0944H10.8166C10.7466 24.0962 10.6783 24.071 10.6262 24.0279C10.5741 23.9848 10.5363 23.9219 10.5274 23.85C10.4303 23.2446 10.1339 22.7056 9.70813 22.3049H9.71171ZM15.4807 34.955C15.6118 34.804 15.7394 34.6495 15.8633 34.4896C15.9837 34.3351 16.1005 34.1734 16.2155 34.0027C16.2424 33.9596 16.2819 33.9291 16.3251 33.9111C17.6941 33.2032 18.7325 32.4451 19.4889 31.6923C20.3495 30.8335 20.8453 29.9873 21.0502 29.2327C21.1238 28.9632 21.1615 28.7045 21.1669 28.4602C21.1723 28.2104 21.1454 27.9751 21.0879 27.7577C21.0286 27.5349 20.9388 27.3337 20.822 27.1523C20.7052 26.9708 20.5597 26.8127 20.3908 26.6798C20.1411 26.4839 19.8392 26.3456 19.4997 26.2791C19.1673 26.2144 18.799 26.218 18.4037 26.3007C18.2618 26.3294 18.1235 26.2396 18.0929 26.0977C18.0893 26.0833 18.0875 26.0707 18.0875 26.0563L18.0732 25.7904C18.0696 25.7222 18.0372 25.6593 17.9887 25.6144C17.9402 25.5713 17.8755 25.5443 17.8055 25.5461C16.4275 25.5784 14.9668 25.5946 13.4253 25.5928C11.8838 25.5928 10.2651 25.5766 8.56751 25.5425C8.49745 25.5407 8.43277 25.5677 8.38426 25.6126C8.33575 25.6557 8.30521 25.7186 8.30161 25.7886C8.18124 27.72 8.33755 29.4519 8.77052 30.979C9.2017 32.4971 9.90416 33.8177 10.8815 34.9388C10.9731 35.0448 11.072 35.1256 11.1816 35.1795C11.2947 35.2388 11.4169 35.2729 11.5535 35.2873C12.1589 35.3466 12.732 35.3789 13.2764 35.3807C13.8172 35.3825 14.3328 35.3556 14.8251 35.2981C14.958 35.2819 15.0784 35.246 15.1862 35.1903C15.2958 35.1328 15.3946 35.0537 15.4827 34.9531L15.4807 34.955ZM16.2784 34.8094C16.149 34.9765 16.0161 35.14 15.8759 35.2999C15.7448 35.4508 15.5957 35.5694 15.4304 35.6574C15.2633 35.7437 15.0818 35.7994 14.8824 35.8227C14.3793 35.8802 13.8422 35.909 13.2744 35.9054C12.7085 35.9036 12.1174 35.8712 11.4994 35.8083C11.2963 35.7886 11.1077 35.7329 10.9388 35.6466C10.7681 35.5586 10.6154 35.4364 10.4824 35.2837C9.45477 34.1034 8.71455 32.7164 8.26364 31.121C7.81628 29.5363 7.651 27.7487 7.77675 25.7581C7.78933 25.5461 7.88455 25.3575 8.02828 25.2264C8.17201 25.0934 8.36605 25.0144 8.57804 25.0179C10.2758 25.0503 11.891 25.0683 13.4253 25.0683C14.9578 25.0683 16.4149 25.0521 17.7929 25.0197C18.0049 25.0161 18.1989 25.0952 18.3426 25.2281C18.481 25.3557 18.5762 25.5336 18.5941 25.7348C18.9481 25.6917 19.2858 25.7007 19.5967 25.7618C20.0189 25.8444 20.3962 26.0169 20.7124 26.2648C20.928 26.4337 21.113 26.6349 21.2621 26.8649C21.4095 27.0913 21.5208 27.3446 21.5963 27.6213C21.6646 27.8836 21.6987 28.1692 21.6933 28.4711C21.6861 28.7568 21.6412 29.0586 21.5568 29.3694C21.3286 30.2066 20.7914 31.1354 19.859 32.0625C19.0757 32.8423 18.0103 33.6256 16.6143 34.3514C16.5083 34.5042 16.3969 34.6567 16.2784 34.8094ZM11.4509 32.5619C11.5731 32.6427 11.6072 32.8044 11.5264 32.9266C11.4473 33.0487 11.2856 33.0811 11.1634 33.002C10.3154 32.4451 9.73153 31.766 9.34528 30.9809C8.9608 30.2029 8.77575 29.3262 8.72184 28.365C8.71286 28.2213 8.82425 28.0973 8.96977 28.0901C9.1153 28.0811 9.23747 28.1925 9.24645 28.338C9.29855 29.2309 9.46744 30.0394 9.81778 30.7491C10.1627 31.4498 10.6891 32.0588 11.4527 32.5601L11.4509 32.5619ZM18.1094 27.1093C18.104 26.989 18.1794 26.8758 18.3016 26.8417C18.6519 26.7428 18.9772 26.7159 19.2664 26.75C19.5844 26.7878 19.8593 26.9009 20.0803 27.0734C20.206 27.1722 20.3156 27.2926 20.4037 27.4327C20.4899 27.5675 20.5582 27.7184 20.6013 27.8837C20.648 28.0633 20.6713 28.2592 20.6642 28.473C20.6588 28.6706 20.6264 28.8808 20.5654 29.1018C20.4108 29.6695 20.0749 30.2948 19.5179 30.9343C19.0311 31.4931 18.3735 32.0698 17.5183 32.6321C17.3961 32.713 17.2344 32.6788 17.1554 32.5567C17.1051 32.4812 17.0997 32.3878 17.1338 32.3105C17.4554 31.5578 17.6962 30.7457 17.8578 29.8797C18.0195 29.0119 18.104 28.0867 18.1076 27.1075L18.1094 27.1093ZM19.2053 27.2728C19.0328 27.2513 18.8406 27.2603 18.6322 27.2998C18.6196 28.2448 18.5334 29.1359 18.3753 29.9767C18.2639 30.575 18.1148 31.1499 17.9297 31.6979C18.4112 31.326 18.8064 30.9541 19.1227 30.5894C19.6258 30.0109 19.9258 29.4593 20.0605 28.9616C20.1108 28.7838 20.136 28.6113 20.1414 28.4532C20.145 28.2951 20.1288 28.1477 20.0947 28.0148C20.0641 27.9016 20.0192 27.801 19.9635 27.7112C19.9078 27.6231 19.8395 27.5477 19.7605 27.4848C19.6132 27.3698 19.4263 27.2961 19.2071 27.2692L19.2053 27.2728ZM15.6067 24.0695C15.5941 24.215 15.4683 24.3228 15.3228 24.3102C15.1773 24.2977 15.0695 24.1719 15.0821 24.0264C15.2815 21.6458 16.3828 19.5204 18.0429 17.9953C19.6886 16.4825 21.8859 15.559 24.2971 15.559C26.8501 15.559 29.1623 16.5939 30.835 18.2665C32.5095 19.941 33.5425 22.2532 33.5425 24.8063C33.5425 27.3594 32.5095 29.6715 30.835 31.3443C29.1606 33.0187 26.8483 34.0536 24.2971 34.0536C23.5964 34.0536 22.9137 33.9745 22.2543 33.8254C21.577 33.6727 20.9284 33.4463 20.3176 33.1553C20.1864 33.0942 20.1307 32.9379 20.1936 32.8049C20.2565 32.6738 20.4128 32.6181 20.544 32.681C21.1225 32.9559 21.7351 33.1715 22.3694 33.3152C22.9856 33.4535 23.6324 33.5272 24.2971 33.5272C26.7046 33.5272 28.8857 32.5498 30.463 30.9742C32.0404 29.395 33.016 27.2156 33.016 24.8083C33.016 22.399 32.0386 20.2197 30.463 18.6424C28.8838 17.0632 26.7045 16.0894 24.2971 16.0894C22.0208 16.0894 19.9493 16.959 18.3989 18.3855C16.8341 19.8246 15.7956 21.8278 15.607 24.0735L15.6067 24.0695ZM21.7404 31.4625C21.6056 31.4104 21.5391 31.2612 21.5895 31.1247C21.6416 30.99 21.7925 30.9235 21.9272 30.9738C22.2973 31.1157 22.6872 31.2271 23.0878 31.3008C23.4759 31.3726 23.8783 31.4104 24.2951 31.4104C26.1187 31.4104 27.768 30.6702 28.9625 29.4754C30.1573 28.2807 30.8975 26.6296 30.8975 24.808C30.8975 22.9826 30.1573 21.3334 28.9625 20.1388C27.7678 18.944 26.1167 18.2056 24.2951 18.2056C22.6099 18.2056 21.0702 18.8362 19.9042 19.8747C18.7238 20.9257 17.9243 22.3935 17.7339 24.0464C17.7177 24.1919 17.5865 24.2961 17.4446 24.2782C17.2991 24.262 17.1949 24.1309 17.211 23.9889C17.4159 22.2031 18.28 20.6185 19.5539 19.483C20.8133 18.3619 22.4734 17.6792 24.2935 17.6792C26.2608 17.6792 28.043 18.4769 29.3348 19.7669C30.6248 21.0568 31.4225 22.8391 31.4225 24.8082C31.4225 26.7755 30.6248 28.5577 29.3348 29.8495C28.0448 31.1395 26.2626 31.9372 24.2935 31.9372C23.8515 31.9372 23.4167 31.8959 22.9909 31.8186C22.5598 31.7378 22.1393 31.6192 21.7369 31.4647L21.7404 31.4625ZM2.39784 0.00390671H38.7975C39.2933 0.00390671 39.7443 0.205128 40.0695 0.532095C40.3965 0.85908 40.5977 1.30823 40.5977 1.80409V41.0061C40.5977 41.502 40.3964 41.9529 40.0695 42.2763L40.0677 42.2799C39.7407 42.6069 39.2915 42.8081 38.7975 42.8081H2.39784C1.90198 42.8081 1.45102 42.6069 1.12584 42.2799C0.798859 41.9529 0.597656 41.5038 0.597656 41.0061V1.80409C0.597656 1.31003 0.798877 0.860861 1.12584 0.533894L1.12944 0.530301C1.45822 0.205114 1.90558 0.00390625 2.39964 0.00390625L2.39784 0.00390671ZM38.7975 1.05674H2.39784C2.19123 1.05674 2.00438 1.13939 1.86965 1.27413L1.86786 1.27593C1.73311 1.41068 1.65046 1.59753 1.65046 1.80412V41.0061C1.65046 41.2127 1.7349 41.3996 1.86965 41.5343C2.0062 41.6709 2.19304 41.7553 2.39784 41.7553H38.7975C39.0041 41.7553 39.1909 41.6709 39.3257 41.5361C39.4622 41.3996 39.5448 41.2127 39.5448 41.0061V1.80412C39.5448 1.59931 39.4604 1.41246 39.3257 1.27594C39.1891 1.14119 39.0023 1.05674 38.7975 1.05674ZM7.49483 9.22977H33.7184C34.2933 9.22977 34.8144 9.46333 35.1934 9.8424C35.5707 10.2197 35.8061 10.7425 35.8061 11.3174V36.0209C35.8061 36.5958 35.5725 37.1169 35.1934 37.4959C34.8161 37.8732 34.2951 38.1086 33.7184 38.1086H7.49483C6.91991 38.1086 6.3989 37.875 6.02162 37.4959C5.64433 37.1186 5.40719 36.5976 5.40719 36.0209V11.3174C5.40719 10.7425 5.64255 10.2215 6.02162 9.8424C6.3989 9.46511 6.91991 9.22977 7.49483 9.22977ZM33.7184 10.2826H7.49483C7.21096 10.2826 6.95224 10.3994 6.76542 10.588C6.57857 10.7749 6.46179 11.0336 6.46179 11.3174V36.0209C6.46179 36.3048 6.57677 36.5635 6.76542 36.7504C6.95227 36.9372 7.21098 37.0558 7.49483 37.0558H33.7184C34.0023 37.0558 34.261 36.939 34.4478 36.7504C34.6347 36.5635 34.7533 36.3048 34.7533 36.0209V11.3174C34.7533 11.0336 34.6365 10.7749 34.4478 10.588C34.261 10.4012 34.0023 10.2826 33.7184 10.2826ZM6.10997 2.33264C6.76754 2.33264 7.36402 2.59854 7.79342 3.02972C8.22461 3.46091 8.49049 4.0556 8.49049 4.71317C8.49049 5.37074 8.2246 5.96723 7.79342 6.39662C7.36223 6.82781 6.76754 7.0937 6.10997 7.0937C5.4524 7.0937 4.85591 6.8278 4.42652 6.39662C3.99533 5.96543 3.72944 5.37074 3.72944 4.71317C3.72944 4.0556 3.99534 3.45911 4.42652 3.02972C4.85771 2.59853 5.4524 2.33264 6.10997 2.33264ZM7.04961 3.77532C6.80887 3.53457 6.47649 3.38545 6.10997 3.38545C5.74345 3.38545 5.4111 3.53457 5.17212 3.77532C4.93137 4.01607 4.78225 4.34844 4.78225 4.71317C4.78225 5.08148 4.93137 5.41204 5.17212 5.65282C5.41286 5.89356 5.74524 6.04088 6.10997 6.04088C6.47827 6.04088 6.80884 5.89356 7.04961 5.65282C7.29036 5.41207 7.43768 5.07969 7.43768 4.71317C7.43768 4.34665 7.29036 4.0143 7.04961 3.77532ZM28.7079 2.94707H35.6966C36.1835 2.94707 36.6236 3.14649 36.9434 3.46629L36.9452 3.46988C37.2668 3.78968 37.4645 4.23163 37.4645 4.71672C37.4645 5.20181 37.2668 5.64376 36.9452 5.96355L36.9434 5.96715C36.6218 6.28694 36.1817 6.48637 35.6966 6.48637H28.7079C28.221 6.48637 27.7809 6.28694 27.4611 5.96715L27.4593 5.96355C27.1377 5.64376 26.9401 5.20181 26.9401 4.71672C26.9401 4.23163 27.1377 3.78967 27.4593 3.46988L27.4611 3.46629C27.7827 3.14649 28.2228 2.94707 28.7079 2.94707ZM35.6966 3.9999H28.7079C28.5103 3.9999 28.3324 4.08075 28.203 4.21011C28.0737 4.34126 27.9928 4.51913 27.9928 4.71498C27.9928 4.91083 28.0737 5.09047 28.203 5.21985C28.3324 5.34922 28.5103 5.43005 28.7079 5.43005H35.6966C35.8942 5.43005 36.0721 5.3492 36.2015 5.21985C36.3326 5.08869 36.4117 4.91083 36.4117 4.71498C36.4117 4.51913 36.3308 4.33948 36.2015 4.21011C36.0721 4.08073 35.8942 3.9999 35.6966 3.9999ZM17.2652 2.33264C17.9228 2.33264 18.5193 2.59854 18.9487 3.02972C19.3798 3.46091 19.6457 4.0556 19.6457 4.71317C19.6457 5.37074 19.3798 5.96723 18.9487 6.39662C18.5175 6.82781 17.9228 7.0937 17.2652 7.0937C16.6076 7.0937 16.0112 6.8278 15.5818 6.39662C15.1506 5.96543 14.8847 5.37074 14.8847 4.71317C14.8847 4.0556 15.1506 3.45911 15.5818 3.02972C16.0129 2.59853 16.6076 2.33264 17.2652 2.33264ZM18.2049 3.77532C17.9641 3.53457 17.6317 3.38545 17.2652 3.38545C16.8987 3.38545 16.5663 3.53457 16.3274 3.77532C16.0866 4.01607 15.9375 4.34844 15.9375 4.71317C15.9375 5.08148 16.0866 5.41204 16.3274 5.65282C16.5681 5.89356 16.9005 6.04088 17.2652 6.04088C17.6335 6.04088 17.9641 5.89356 18.2049 5.65282C18.4456 5.41207 18.5929 5.07969 18.5929 4.71317C18.5929 4.34665 18.4456 4.0143 18.2049 3.77532ZM11.6867 2.33264C12.3442 2.33264 12.9407 2.59854 13.3701 3.02972C13.8013 3.46091 14.0672 4.0556 14.0672 4.71317C14.0672 5.37074 13.8013 5.96723 13.3701 6.39662C12.9389 6.82781 12.3442 7.0937 11.6867 7.0937C11.0291 7.0937 10.4326 6.8278 10.0032 6.39662C9.57203 5.96543 9.30614 5.37074 9.30614 4.71317C9.30614 4.0556 9.57204 3.45911 10.0032 3.02972C10.4344 2.59853 11.0291 2.33264 11.6867 2.33264ZM12.6263 3.77532C12.3856 3.53457 12.0532 3.38545 11.6867 3.38545C11.3201 3.38545 10.9878 3.53457 10.7488 3.77532C10.5081 4.01607 10.3589 4.34844 10.3589 4.71317C10.3589 5.08148 10.5081 5.41204 10.7488 5.65282C10.9896 5.89356 11.3219 6.04088 11.6867 6.04088C12.055 6.04088 12.3855 5.89356 12.6263 5.65282C12.8671 5.41207 13.0144 5.07969 13.0144 4.71317C13.0144 4.34665 12.8671 4.0143 12.6263 3.77532ZM35.9197 43.9602C35.9197 43.6692 36.155 43.4338 36.4461 43.4338C36.7353 43.4338 36.9725 43.6692 36.9725 43.9602V44.7489C36.9725 45.0939 36.8323 45.4065 36.6059 45.6311C36.5934 45.6436 36.5808 45.6544 36.5682 45.667C36.3454 45.8718 36.049 45.9994 35.7238 45.9994H31.5862C31.2431 45.9994 30.9322 45.8592 30.7041 45.6311H30.7023C30.4759 45.4047 30.334 45.0921 30.334 44.7489V43.9602C30.334 43.6692 30.5693 43.4338 30.8603 43.4338C31.1514 43.4338 31.3867 43.6692 31.3867 43.9602V44.7489C31.3867 44.8028 31.4083 44.8513 31.4442 44.8872C31.4802 44.9232 31.5287 44.9447 31.5826 44.9447H35.7202C35.7669 44.9447 35.8118 44.9286 35.8442 44.9016L35.8567 44.889C35.8927 44.8531 35.916 44.8046 35.916 44.7507V43.962L35.9197 43.9602Z" fill="#9CA3AF"/>
</svg>
