<svg width="46" height="48" viewBox="0 0 46 48" fill="none" xmlns="http://www.w3.org/2000/svg">
<path d="M44.5999 43.4262H1.40828C0.96257 43.4262 0.601562 43.0652 0.601562 42.6195V13.6622C0.601562 13.2165 0.96257 12.8555 1.40828 12.8555H44.5999C44.8157 12.8555 45.0194 12.9402 45.1707 13.0914C45.322 13.2427 45.4067 13.4484 45.4067 13.6622V42.6195C45.4067 42.8333 45.322 43.039 45.1707 43.1903C45.0195 43.3416 44.8158 43.4262 44.5999 43.4262ZM2.21268 41.8128H43.793V14.4689H2.21474L2.21268 41.8128Z" fill="#9CA3AF"/>
<path d="M44.5979 10.7116C44.2712 10.7096 43.9767 10.5119 43.8537 10.2074L40.3001 1.61354H5.70381L2.15022 10.2131C1.98081 10.6245 1.50887 10.8201 1.09542 10.6487C0.683991 10.4793 0.488349 10.0074 0.659787 9.59591L4.41908 0.498149C4.54412 0.197646 4.83857 0 5.16529 0H40.8386C41.1653 0 41.4597 0.197646 41.5848 0.498149L45.3441 9.59591C45.4489 9.84398 45.4207 10.1283 45.2695 10.3522C45.1202 10.5781 44.8682 10.7116 44.5979 10.7116Z" fill="#9CA3AF"/>
<path d="M41.712 41.0422H33.9473C33.5016 41.0422 33.1406 40.6812 33.1406 40.2355V32.4708C33.1406 32.0251 33.5016 31.6641 33.9473 31.6641H41.712C41.9258 31.6641 42.1315 31.7488 42.2828 31.9C42.434 32.0513 42.5187 32.257 42.5187 32.4708V40.2355C42.5187 40.4492 42.434 40.655 42.2828 40.8062C42.1315 40.9575 41.9258 41.0422 41.712 41.0422ZM34.7538 39.4287H40.905V33.2775H34.7538V39.4287Z" fill="#9CA3AF"/>
<path d="M10.8899 38.7034H4.2911C3.84538 38.7034 3.48438 38.3404 3.48438 37.8967V34.7989C3.48438 34.3532 3.84538 33.9922 4.2911 33.9922H10.8899C11.1037 33.9922 11.3094 34.0769 11.4607 34.2282C11.612 34.3794 11.6967 34.5851 11.6967 34.7989V37.8967C11.6967 38.1105 11.612 38.3142 11.4607 38.4655C11.3094 38.6168 11.1037 38.7034 10.8899 38.7034ZM5.09756 37.09H10.0831V35.6056H5.09756V37.09Z" fill="#9CA3AF"/>
<path d="M20.4563 38.7034H13.8575C13.4118 38.7034 13.0508 38.3404 13.0508 37.8967V34.7989C13.0508 34.3532 13.4118 33.9922 13.8575 33.9922H20.4563C20.6701 33.9922 20.8738 34.0769 21.0251 34.2282C21.1764 34.3794 21.2631 34.5851 21.2631 34.7989V37.8967C21.2631 38.1105 21.1764 38.3142 21.0251 38.4655C20.8738 38.6168 20.6701 38.7034 20.4563 38.7034ZM14.664 37.09H19.6495V35.6056H14.664V37.09Z" fill="#9CA3AF"/>
<path d="M29.8817 18.3512H16.1192C15.6735 18.3512 15.3125 17.9902 15.3125 17.5445V13.6622C15.3125 13.2165 15.6735 12.8555 16.1192 12.8555H29.8838H29.8818C30.0976 12.8555 30.3013 12.9402 30.4526 13.0914C30.6038 13.2427 30.6885 13.4484 30.6885 13.6622V17.5445C30.6885 17.7583 30.6038 17.964 30.4526 18.1153C30.3013 18.2666 30.0975 18.3512 29.8817 18.3512ZM16.9236 16.7378H29.0748V14.4689H16.9257L16.9236 16.7378Z" fill="#9CA3AF"/>
<path d="M6.35022 47.9981H3.17781C2.7321 47.9981 2.37109 47.637 2.37109 47.1913V42.6192C2.37109 42.1735 2.7321 41.8125 3.17781 41.8125H9.17155C9.46197 41.8125 9.7322 41.9718 9.87341 42.2259C10.0166 42.4821 10.0106 42.7947 9.85728 43.0427L7.03373 47.6148C6.8865 47.8528 6.62853 47.996 6.35022 47.9981ZM3.98453 46.3846H5.90048L7.72364 43.4259H3.98448L3.98453 46.3846Z" fill="#9CA3AF"/>
<path d="M42.8265 47.998H39.6541C39.3738 47.998 39.1136 47.8528 38.9664 47.6148L36.1428 43.0427C35.9896 42.7947 35.9835 42.4821 36.1267 42.2259C36.2679 41.9718 36.5381 41.8125 36.8286 41.8125H42.8223C43.0381 41.8125 43.2418 41.8972 43.3931 42.0485C43.5443 42.1997 43.629 42.4054 43.629 42.6192V47.1914C43.631 47.6351 43.2722 47.996 42.8265 47.998ZM40.1038 46.3846H42.0198V43.4259H38.2786L40.1038 46.3846Z" fill="#9CA3AF"/>
<path d="M44.5999 14.469H1.40828C0.96257 14.469 0.601562 14.108 0.601562 13.6623V9.94735C0.601562 9.50163 0.96257 9.14062 1.40828 9.14062H44.5999C44.8157 9.14062 45.0194 9.22533 45.1707 9.37659C45.322 9.52785 45.4067 9.73357 45.4067 9.94736V13.6623C45.4067 13.8761 45.322 14.0818 45.1707 14.2331C45.0195 14.3843 44.8158 14.469 44.5999 14.469ZM2.21268 12.8556H43.793V10.7541H2.21474L2.21268 12.8556Z" fill="#9CA3AF"/>
<path d="M23.002 34.6806C22.5563 34.6806 22.1953 34.3196 22.1953 33.8739V20.2481C22.1953 19.8024 22.5563 19.4414 23.002 19.4414C23.4477 19.4414 23.8088 19.8024 23.8088 20.2481V33.8739C23.8088 34.0897 23.724 34.2934 23.5728 34.4446C23.4215 34.5959 23.2158 34.6806 23.002 34.6806Z" fill="#9CA3AF"/>
<path d="M29.8152 27.8674H16.1895C15.7438 27.8674 15.3828 27.5063 15.3828 27.0606C15.3828 26.6149 15.7438 26.2539 16.1895 26.2539H29.8152C30.2609 26.2539 30.6219 26.6149 30.6219 27.0606C30.6219 27.5063 30.2609 27.8674 29.8152 27.8674Z" fill="#9CA3AF"/>
<path d="M23.0008 24.9431C22.7729 24.9431 22.5571 24.8463 22.4039 24.6789L20.1188 22.1659C19.9676 22.0086 19.8849 21.7969 19.8909 21.579C19.899 21.3612 19.9938 21.1535 20.1551 21.0063C20.3165 20.8611 20.5303 20.7844 20.7481 20.7985C20.9679 20.8127 21.1696 20.9155 21.3107 21.0809L23.0008 22.9364L24.6908 21.0809C24.832 20.9155 25.0337 20.8127 25.2535 20.7985C25.4713 20.7844 25.6851 20.8611 25.8464 21.0063C26.0078 21.1535 26.1026 21.3612 26.1106 21.579C26.1167 21.7969 26.034 22.0086 25.8827 22.1659L23.5977 24.6789C23.4444 24.8463 23.2287 24.9431 23.0008 24.9431Z" fill="#9CA3AF"/>
<path d="M17.564 30.1511C17.2312 30.1511 16.9327 29.9453 16.8118 29.6348C16.6907 29.3242 16.7754 28.9712 17.0215 28.7473L18.877 27.0593L17.0215 25.3712C16.8602 25.228 16.7633 25.0264 16.7512 24.8106C16.7391 24.5948 16.8158 24.385 16.959 24.2257C17.1042 24.0664 17.3079 23.9716 17.5237 23.9615C17.7395 23.9534 17.9492 24.0301 18.1066 24.1773L20.6195 26.4624C20.7869 26.6156 20.8837 26.8314 20.8837 27.0593C20.8837 27.2872 20.7869 27.503 20.6195 27.6563L18.1066 29.9413C17.9573 30.0764 17.7637 30.1511 17.564 30.1511Z" fill="#9CA3AF"/>
<path d="M25.2878 33.3041C25.0599 33.3041 24.8421 33.2093 24.6908 33.0399L23.0008 31.1844L21.3107 33.0399C21.1695 33.2052 20.9679 33.3081 20.7481 33.3222C20.5302 33.3363 20.3165 33.2597 20.1551 33.1145C19.9938 32.9673 19.899 32.7595 19.8909 32.5417C19.8849 32.3239 19.9676 32.1121 20.1188 31.9548L22.4039 29.4439C22.5572 29.2765 22.773 29.1797 23.0008 29.1797C23.2287 29.1797 23.4445 29.2765 23.5978 29.4439L25.8828 31.9568C26.0966 32.1928 26.1531 32.5336 26.024 32.8261C25.8949 33.1165 25.6065 33.3061 25.2879 33.3061L25.2878 33.3041Z" fill="#9CA3AF"/>
<path d="M28.4408 30.1511C28.2411 30.1511 28.0475 30.0764 27.8982 29.9413L25.3853 27.6563C25.2179 27.503 25.1211 27.2872 25.1211 27.0593C25.1211 26.8314 25.2179 26.6156 25.3853 26.4624L27.8982 24.1773C28.0555 24.0301 28.2653 23.9535 28.4811 23.9615C28.6969 23.9716 28.9006 24.0664 29.0458 24.2257C29.189 24.385 29.2656 24.5948 29.2535 24.8106C29.2414 25.0264 29.1446 25.2281 28.9833 25.3712L27.1278 27.0593L28.9833 28.7473C29.2293 28.9712 29.314 29.3241 29.193 29.6348C29.072 29.9453 28.7735 30.1511 28.4408 30.1511Z" fill="#9CA3AF"/>
<path d="M20.3966 10.6167C19.9529 10.6167 19.5898 10.2557 19.5898 9.81V0.806722C19.5898 0.361009 19.9529 0 20.3966 0C20.8423 0 21.2033 0.361009 21.2033 0.806722V9.81C21.2033 10.0238 21.1186 10.2295 20.9673 10.3808C20.8161 10.532 20.6124 10.6167 20.3966 10.6167Z" fill="#9CA3AF"/>
<path d="M25.6075 10.6167C25.1618 10.6167 24.8008 10.2557 24.8008 9.81V0.806722C24.8008 0.361009 25.1618 0 25.6075 0C26.0512 0 26.4142 0.361009 26.4142 0.806722V9.81C26.4142 10.0238 26.3275 10.2295 26.1762 10.3808C26.025 10.532 25.8213 10.6167 25.6075 10.6167Z" fill="#9CA3AF"/>
</svg>
