<svg width="30" height="48" viewBox="0 0 30 48" fill="none" xmlns="http://www.w3.org/2000/svg">
<path d="M29.9115 30.1889V1.54839C29.9115 1.13773 29.7484 0.743891 29.458 0.453512C29.1677 0.163133 28.7738 0 28.3632 0H16.7503C16.5449 0 16.348 0.0815665 16.2028 0.226756C16.0576 0.371945 15.9761 0.568865 15.9761 0.774194H14.4277C14.4277 0.568865 14.3461 0.371945 14.2009 0.226756C14.0557 0.0815665 13.8588 0 13.6535 0H2.04057C1.62992 0 1.23608 0.163133 0.9457 0.453512C0.655321 0.743891 0.492188 1.13773 0.492188 1.54839V43.3548C0.492188 43.7655 0.655321 44.1593 0.9457 44.4497C1.23608 44.7401 1.62992 44.9032 2.04057 44.9032H3.58896V46.4516C3.58896 46.8623 3.7521 47.2561 4.04247 47.5465C4.33285 47.8369 4.72669 48 5.13735 48H8.23412C8.64478 48 9.03862 47.8369 9.329 47.5465C9.61938 47.2561 9.78251 46.8623 9.78251 46.4516V44.9032H20.6212V46.4516C20.6212 46.8623 20.7844 47.2561 21.0747 47.5465C21.3651 47.8369 21.7589 48 22.1696 48H25.2664C25.677 48 26.0709 47.8369 26.3613 47.5465C26.6516 47.2561 26.8148 46.8623 26.8148 46.4516V44.9032H28.3632C28.7738 44.9032 29.1677 44.7401 29.458 44.4497C29.7484 44.1593 29.9115 43.7655 29.9115 43.3548V30.1935V30.1889ZM17.5244 1.54839H28.3632V29.4194H17.5244V1.54839ZM15.9761 2.32258V29.4194H14.4277V2.32258H15.9761ZM2.04057 1.54839H12.8793V29.4194H2.04057V1.54839ZM8.23412 46.4516H5.13735V44.9032H8.23412V46.4516ZM25.2664 46.4516H22.1696V44.9032H25.2664V46.4516ZM2.04057 43.3548V30.9677H28.3632V43.3548H2.04057Z" fill="#9CA3AF"/>
<path d="M12.1062 8.51562H10.5586V23.9987H12.1062V8.51562Z" fill="#9CA3AF"/>
<path d="M19.8445 8.51562H18.2969V23.9987H19.8445V8.51562Z" fill="#9CA3AF"/>
<path d="M23.7198 33.6777C23.7198 33.1643 23.5158 32.672 23.1529 32.3091C22.7899 31.9461 22.2976 31.7422 21.7843 31.7422H8.62298C8.10966 31.7422 7.61736 31.9461 7.25439 32.3091C6.89142 32.672 6.6875 33.1643 6.6875 33.6777C6.6875 34.191 6.89142 34.6833 7.25439 35.0463C7.61736 35.4092 8.10966 35.6132 8.62298 35.6132H21.7843C22.2976 35.6132 22.7899 35.4092 23.1529 35.0463C23.5158 34.6833 23.7198 34.191 23.7198 33.6777ZM21.7843 34.0648H8.62298C8.52032 34.0648 8.42186 34.024 8.34926 33.9514C8.27667 33.8788 8.23589 33.7803 8.23589 33.6777C8.23589 33.575 8.27667 33.4765 8.34926 33.404C8.42186 33.3314 8.52032 33.2906 8.62298 33.2906H21.7843C21.8869 33.2906 21.9854 33.3314 22.058 33.404C22.1306 33.4765 22.1714 33.575 22.1714 33.6777C22.1714 33.7803 22.1306 33.8788 22.058 33.9514C21.9854 34.024 21.8869 34.0648 21.7843 34.0648Z" fill="#9CA3AF"/>
<path d="M27.5897 3.09766H22.9453V4.64527H27.5897V3.09766Z" fill="#9CA3AF"/>
<path d="M8.23576 11.6133H3.5906C3.38527 11.6133 3.18835 11.6948 3.04316 11.84C2.89797 11.9852 2.81641 12.1821 2.81641 12.3875V20.1294C2.81641 20.3347 2.89797 20.5317 3.04316 20.6768C3.18835 20.822 3.38527 20.9036 3.5906 20.9036H8.23576C8.44109 20.9036 8.63801 20.822 8.7832 20.6768C8.92839 20.5317 9.00995 20.3347 9.00995 20.1294V12.3875C9.00995 12.1821 8.92839 11.9852 8.7832 11.84C8.63801 11.6948 8.44109 11.6133 8.23576 11.6133ZM7.46157 13.1617V14.7101H4.36479V13.1617H7.46157ZM4.36479 19.3552V16.2584H5.13899V17.8068H6.68737V16.2584H7.46157V19.3552H4.36479Z" fill="#9CA3AF"/>
<path d="M26.8124 40.2578H22.168V41.8054H26.8124V40.2578Z" fill="#9CA3AF"/>
<path d="M8.23423 40.2578H3.58984V41.8054H8.23423V40.2578Z" fill="#9CA3AF"/>
</svg>
