<svg width="41" height="40" viewBox="0 0 41 40" fill="none" xmlns="http://www.w3.org/2000/svg">
<path d="M39.3015 2.88356C38.7325 2.75445 38.216 2.46752 37.8047 2.05627C37.3935 1.64502 37.1066 1.12378 36.9774 0.559497L36.8483 0H35.6767L35.5476 0.559497C35.4185 1.12378 35.1316 1.64502 34.7203 2.05627C34.3091 2.46752 33.7878 2.75445 33.2236 2.88356L32.6641 3.01267V4.18427L33.2188 4.31339C34.3665 4.5764 35.2798 5.48976 35.5428 6.63745L35.672 7.19216H36.8436L36.9727 6.63267C37.1018 6.06839 37.3887 5.54715 37.8 5.13589C38.2112 4.72464 38.7325 4.43772 39.2967 4.3086L39.8514 4.17949V3.00789L39.3015 2.88356ZM36.791 4.1221C36.5949 4.31817 36.418 4.52858 36.2649 4.75811C35.9541 4.30382 35.5572 3.9117 35.1077 3.60086C35.3324 3.44306 35.5476 3.26612 35.7437 3.07006C35.9397 2.874 36.1167 2.66359 36.2697 2.43883C36.4227 2.66359 36.5997 2.874 36.7957 3.07006C36.9918 3.26612 37.2022 3.44306 37.427 3.59608C37.1974 3.74911 36.987 3.92604 36.791 4.1221Z" fill="#9CA3AF"/>
<path d="M4.87472 6.57832H3.72225L3.59314 6.0236C3.51663 5.68886 3.24883 5.42107 2.91409 5.34455L2.35938 5.21544V4.06297L2.91887 3.93386C3.08624 3.8956 3.23449 3.81431 3.35404 3.68997C3.47359 3.57042 3.55966 3.4174 3.59792 3.25481L3.72704 2.69531H4.8795L5.00862 3.25481C5.04688 3.42218 5.12817 3.57042 5.2525 3.68997C5.37205 3.80952 5.52508 3.8956 5.68767 3.92907L6.24716 4.05819V5.21066L5.68767 5.33977C5.5203 5.37803 5.37205 5.45932 5.2525 5.58365C5.13295 5.70321 5.04688 5.85623 5.00862 6.01882L4.87472 6.57832Z" fill="#9CA3AF"/>
<path d="M22.0959 20.2107C21.8472 19.962 21.5173 19.8281 21.1682 19.8281H14.5642C13.8421 19.8281 13.2539 20.4163 13.2539 21.1384V32.4622H22.4832V21.1384C22.4832 20.7893 22.3445 20.4594 22.0959 20.2107ZM14.6885 31.0276V21.2627H21.0486V31.0276H14.6885Z" fill="#9CA3AF"/>
<path d="M17.8704 11.3086C16.3449 11.3086 15.1016 12.5519 15.1016 14.0774C15.1016 15.6029 16.3449 16.8462 17.8704 16.8462C19.3958 16.8462 20.6392 15.6029 20.6392 14.0774C20.6392 12.5471 19.3958 11.3086 17.8704 11.3086ZM17.8704 15.4068C17.1339 15.4068 16.5362 14.809 16.5362 14.0726C16.5362 13.3362 17.1339 12.7384 17.8704 12.7384C18.6068 12.7384 19.2045 13.3362 19.2045 14.0726C19.2045 14.809 18.6068 15.4068 17.8704 15.4068Z" fill="#9CA3AF"/>
<path d="M28.1278 8.98242L17.8703 0.78125L0.597656 14.6013L3.50035 17.7287L4.73889 16.7389V14.9026L3.64381 15.7729L2.69697 14.7543L5.90092 12.1912L7.89025 10.5987L17.8656 2.61755L28.1278 10.8235V12.5976L17.8703 4.39168L11.7111 9.32194L5.20275 14.5296L5.00669 14.6874L4.73889 14.9026V16.7389L5.90571 15.8064L5.95831 15.7633L6.08264 15.6629L6.1735 15.5912L17.8703 6.23276L28.1278 14.4339L29.5624 15.5816V10.1301L28.1278 8.98242Z" fill="#9CA3AF"/>
<path d="M6.16898 14.5234V15.5085L5.95379 15.762L4.73438 17.1822V14.8964L5.00695 14.6812L5.20301 14.5282L6.16898 14.5234Z" fill="#9CA3AF"/>
<path d="M28.1272 12.5966L17.8697 4.39062L11.7105 9.32089L5.20214 14.5285L5.00608 14.6863L4.73828 14.9015V17.1873V32.4707H24.6602L24.8658 32.0977C24.8945 32.0451 24.9232 31.9925 24.9519 31.9399C24.9854 31.8729 25.0236 31.806 25.0571 31.7438C25.0762 31.7103 25.0954 31.6721 25.1097 31.6386C25.191 31.476 25.2675 31.3182 25.3393 31.1556C25.3632 31.1078 25.3823 31.06 25.4062 31.0122C25.4971 30.8065 25.5831 30.6057 25.6597 30.4096C25.674 30.3666 25.6931 30.3283 25.7075 30.2853C25.8414 29.9458 25.9514 29.6254 26.047 29.3241C26.0566 29.2954 26.0661 29.2667 26.0757 29.238C26.0948 29.1759 26.1139 29.1089 26.1331 29.0467C26.1474 29.0037 26.157 28.9654 26.1713 28.9272C26.1713 28.9224 26.1761 28.9128 26.1761 28.9081C26.1857 28.8842 26.1905 28.8602 26.2 28.8315C26.2287 28.7263 26.2622 28.6259 26.2861 28.5255C26.2909 28.5016 26.3004 28.4777 26.3052 28.4538C26.3196 28.4059 26.3291 28.3581 26.3435 28.3151C26.353 28.2816 26.3578 28.2529 26.3674 28.2194C26.3961 28.1095 26.42 28.0043 26.4391 27.9134C26.5061 27.6169 26.5443 27.4161 26.5539 27.3396L26.7643 26.4788L27.0369 25.3741C27.0512 25.3215 27.0943 25.2881 27.1469 25.2881H29.5618V13.7443L28.1272 12.5966ZM28.1272 23.8535H27.1421C26.4248 23.8535 25.8079 24.3364 25.6357 25.0346L25.2819 26.4788L25.148 27.0239L25.1432 27.0526L25.1384 27.0861C25.1384 27.0909 25.1289 27.1435 25.1097 27.2439C25.1097 27.2535 25.1049 27.263 25.1049 27.2774C25.0906 27.3539 25.0715 27.4495 25.0428 27.5643C25.0332 27.5978 25.0284 27.6313 25.0189 27.6695C24.9997 27.746 24.9806 27.8321 24.9567 27.923C24.9519 27.9373 24.9519 27.9517 24.9471 27.966C24.9376 27.9947 24.9328 28.0234 24.9232 28.0569C24.9184 28.076 24.9137 28.0999 24.9089 28.119C24.9041 28.1429 24.8945 28.1621 24.8897 28.186C24.8658 28.2721 24.8419 28.3677 24.8132 28.4585C24.7941 28.5303 24.7702 28.602 24.7463 28.6785C24.7463 28.6833 24.7463 28.6881 24.7415 28.6881C24.7176 28.7598 24.6937 28.8315 24.6698 28.9081C24.665 28.9176 24.665 28.9272 24.6602 28.9368C24.6459 28.9798 24.6315 29.0276 24.6172 29.0707C24.6076 29.0993 24.598 29.1233 24.5885 29.1519C24.5789 29.1759 24.5741 29.1998 24.5646 29.2285C24.5454 29.2858 24.5215 29.3432 24.5024 29.4054C24.4928 29.4341 24.4833 29.4628 24.4737 29.4915C24.3972 29.7019 24.3111 29.9219 24.2155 30.1466C24.2059 30.1705 24.1964 30.1944 24.182 30.2231C24.139 30.3188 24.0959 30.4192 24.0529 30.5196C24.0385 30.5531 24.0242 30.5818 24.0099 30.6152C23.9955 30.6487 23.9812 30.6822 23.962 30.7157C23.9333 30.7826 23.8999 30.8496 23.8664 30.9165C23.852 30.95 23.8329 30.9835 23.8186 31.0169C23.8138 31.0265 23.809 31.0361 23.8042 31.0456H6.16811V15.5901L17.8649 6.2317L28.1272 14.4329V23.8535Z" fill="#9CA3AF"/>
<path d="M6.16898 15.5085L5.95379 15.762L4.73438 17.1822V14.8964L5.00695 14.6812L5.20301 14.5282L6.16898 14.5234V15.5085Z" fill="#9CA3AF"/>
<path d="M18.587 20.5469H17.1523V31.7464H18.587V20.5469Z" fill="#9CA3AF"/>
<path d="M28.1289 7.30078V25.286H32.5092V7.30078H28.1289ZM29.5635 23.8514V8.73539H31.0746V23.8514H29.5635Z" fill="#9CA3AF"/>
<path d="M35.4684 27.0029L34.9902 25.0375C34.8228 24.3393 34.2012 23.8516 33.4839 23.8516H27.1429C26.4256 23.8516 25.8087 24.3345 25.6366 25.0327L25.2827 26.4769L25.144 27.0507L24.9336 27.9115H35.6932L35.4684 27.0029ZM26.7603 26.4769L27.0329 25.3722C27.0472 25.3196 27.0903 25.2862 27.1429 25.2862H33.4839C33.5365 25.2862 33.5843 25.3244 33.5938 25.3722L33.8616 26.4769H26.7603Z" fill="#9CA3AF"/>
<path d="M39.5723 34.0208C37.0234 31.8498 35.5745 27.326 35.4693 27.0056C35.4645 26.996 35.4645 26.9913 35.4645 26.9913L35.3115 26.4844H25.8478H25.2836H25.2357L25.1449 27.0582L25.1401 27.0917C25.1401 27.0965 25.1305 27.1491 25.1114 27.2495C25.1114 27.2591 25.1066 27.2686 25.1066 27.283C25.0923 27.3595 25.0731 27.4551 25.0445 27.5699C25.0349 27.6034 25.0301 27.6368 25.0205 27.6751C25.0014 27.7516 24.9823 27.8377 24.9584 27.9285C24.9536 27.9429 24.9536 27.9572 24.9488 27.9716C24.9392 28.0003 24.9345 28.029 24.9249 28.0624C24.9201 28.0816 24.9153 28.1055 24.9106 28.1246C24.9058 28.1485 24.901 28.1676 24.8914 28.1916C24.8675 28.2776 24.8436 28.3733 24.8149 28.4641C24.7958 28.5359 24.7719 28.6076 24.748 28.6841C24.748 28.6889 24.748 28.6937 24.7432 28.6937C24.7193 28.7654 24.6954 28.8371 24.6715 28.9136C24.6667 28.9232 24.6667 28.9328 24.6619 28.9423C24.6475 28.9854 24.6332 29.0332 24.6189 29.0762C24.6093 29.1049 24.5997 29.1288 24.5902 29.1575C24.5806 29.1814 24.5758 29.2053 24.5663 29.234C24.5471 29.2914 24.5232 29.3488 24.5041 29.411C24.4945 29.4397 24.485 29.4684 24.4754 29.497C24.3989 29.7075 24.3128 29.9274 24.2172 30.1522C24.2076 30.1761 24.198 30.2 24.1837 30.2287C24.1407 30.3243 24.0976 30.4248 24.0546 30.5252C24.0402 30.5587 24.0259 30.5874 24.0115 30.6208C23.9972 30.6543 23.9828 30.6878 23.9637 30.7212C23.935 30.7882 23.9016 30.8551 23.8681 30.9221C23.8537 30.9556 23.8346 30.989 23.8203 31.0225C23.8155 31.0321 23.8107 31.0416 23.8059 31.0512C23.7437 31.1755 23.6768 31.2999 23.6098 31.4242C23.4042 31.802 23.1842 32.1559 22.9499 32.4858C22.2183 33.5331 21.3671 34.3412 20.4107 34.8912L19.5547 35.3837L20.2863 36.0436C22.1609 37.7317 24.461 38.822 26.9429 39.1902L27.4259 39.2619L27.4642 39.195L27.445 39.2811L28.2771 39.3193C28.4588 39.3289 28.6453 39.3337 28.8366 39.3337C32.3131 39.3337 37.1382 37.8704 39.6392 35.0681L40.127 34.5182L39.5723 34.0208ZM36.5931 35.685C36.1961 35.9289 35.7705 36.1536 35.3258 36.364C34.5942 36.7083 33.8099 37.0048 33.0017 37.2439C32.5379 37.3826 32.0645 37.4974 31.5863 37.593C30.7685 37.7556 29.946 37.8512 29.1427 37.8704C29.1474 37.8321 29.1522 37.7891 29.157 37.7508C29.1618 37.7078 29.1666 37.6695 29.1713 37.6313C29.1809 37.5595 29.1857 37.4878 29.1905 37.4161C29.1905 37.4017 29.1905 37.3874 29.1953 37.3778C29.2048 37.2774 29.2096 37.177 29.2192 37.0813C29.2192 37.0526 29.2239 37.0287 29.2239 37C29.2287 36.9427 29.2287 36.8805 29.2335 36.8231C29.2335 36.7849 29.2383 36.7514 29.2383 36.7131C29.2383 36.6749 29.2383 36.6414 29.2431 36.6031C29.2431 36.5314 29.2479 36.4597 29.2479 36.3927C29.2479 36.364 29.2479 36.3353 29.2479 36.3066V36.2923C29.2479 36.2588 29.2479 36.2254 29.2479 36.1919C29.2526 35.3024 29.1857 34.6855 29.1761 34.6377L28.6597 30.2144L27.7654 34.5708C27.7367 34.719 27.7033 34.8625 27.665 35.0059C27.6602 35.0346 27.6507 35.0633 27.6411 35.092C27.622 35.1637 27.6028 35.2355 27.5837 35.3072C27.5741 35.3407 27.5646 35.3742 27.555 35.4028C27.4642 35.7089 27.3637 36.0006 27.2633 36.2732C27.2538 36.3019 27.2394 36.3353 27.2298 36.364C27.2107 36.4119 27.1916 36.4597 27.1725 36.5075C27.1581 36.5505 27.139 36.5936 27.1246 36.6318C27.0864 36.7275 27.0481 36.8183 27.0099 36.9092C27.0003 36.9283 26.9907 36.9522 26.9812 36.9714C26.8616 37.2487 26.7469 37.483 26.656 37.6647C24.9488 37.3348 23.3468 36.6127 21.9648 35.5559C22.993 34.786 23.892 33.7483 24.6475 32.4619C24.7193 32.3424 24.791 32.218 24.858 32.0889C24.8866 32.0363 24.9153 31.9837 24.944 31.9311C24.9775 31.8641 25.0158 31.7972 25.0492 31.735C25.0684 31.7016 25.0875 31.6633 25.1018 31.6298C25.1831 31.4672 25.2596 31.3094 25.3314 31.1468C25.3553 31.099 25.3744 31.0512 25.3983 31.0034C25.4892 30.7978 25.5753 30.5969 25.6518 30.4009C25.6661 30.3578 25.6852 30.3196 25.6996 30.2765C25.8335 29.937 25.9435 29.6166 26.0391 29.3153C26.0487 29.2866 26.0582 29.2579 26.0678 29.2293C26.0869 29.1671 26.1061 29.1001 26.1252 29.038C26.1395 28.9949 26.1491 28.9567 26.1635 28.9184C26.1635 28.9136 26.1682 28.9041 26.1682 28.8993C26.1778 28.8754 26.1826 28.8515 26.1921 28.8228C26.2208 28.7176 26.2543 28.6172 26.2782 28.5167C26.283 28.4928 26.2926 28.4689 26.2973 28.445C26.3117 28.3972 26.3213 28.3494 26.3356 28.3063C26.3452 28.2729 26.3499 28.2442 26.3595 28.2107C26.3882 28.1007 26.4121 27.9955 26.4312 27.9046H34.2546C34.6898 29.1623 35.9714 32.4428 38.0707 34.5803C37.6499 34.9772 37.1478 35.3455 36.5931 35.685Z" fill="#9CA3AF"/>
<path d="M27.6682 38.8186L26.4297 38.0965C26.4393 38.0821 27.3813 36.4419 27.7639 34.5721L28.6629 30.2109L29.1794 34.6343C29.1889 34.7156 29.4089 36.681 29.012 38.7134C29.012 38.7182 29.0072 38.7277 29.0072 38.7325C29.0072 38.7277 29.0072 38.7229 29.012 38.7182L28.6485 38.6464L27.8308 38.5173C27.74 38.6942 27.6778 38.7995 27.6682 38.8186Z" fill="#9CA3AF"/>
<path d="M33.0413 38.1498L31.6067 38.1403C31.6067 38.1163 31.6067 35.9262 30.832 33.7408L32.1853 33.2578C33.0461 35.6871 33.0413 38.0494 33.0413 38.1498Z" fill="#9CA3AF"/>
<path d="M35.7339 37.0403C35.2749 36.3039 34.4237 34.8789 33.8594 33.6021L35.1696 33.0234C35.7196 34.262 36.5995 35.7157 36.9533 36.2848L35.7339 37.0403Z" fill="#9CA3AF"/>
<path d="M39.2868 17.0625C38.5648 17.0625 37.9766 17.6507 37.9766 18.3728C37.9766 19.0949 38.5648 19.683 39.2868 19.683C40.0089 19.683 40.5971 19.0949 40.5971 18.3728C40.5971 17.6507 40.0089 17.0625 39.2868 17.0625ZM39.2868 18.4971C39.2199 18.4971 39.1625 18.4397 39.1625 18.3728C39.1625 18.3058 39.2199 18.2484 39.2868 18.2484C39.3538 18.2484 39.4112 18.3058 39.4112 18.3728C39.4112 18.4397 39.3538 18.4971 39.2868 18.4971Z" fill="#9CA3AF"/>
<path d="M8.22303 35.5547C7.05622 35.5547 6.10938 36.5015 6.10938 37.6683C6.10938 38.8352 7.05622 39.782 8.22303 39.782C9.38985 39.782 10.3367 38.8352 10.3367 37.6683C10.3367 36.5063 9.38506 35.5547 8.22303 35.5547ZM8.22303 38.3522C7.85003 38.3522 7.54398 38.0461 7.54398 37.6731C7.54398 37.3001 7.85003 36.9941 8.22303 36.9941C8.59603 36.9941 8.90208 37.3001 8.90208 37.6731C8.90208 38.0461 8.59603 38.3522 8.22303 38.3522Z" fill="#9CA3AF"/>
</svg>
