<svg width="41" height="40" viewBox="0 0 41 40" fill="none" xmlns="http://www.w3.org/2000/svg">
<path d="M14.4024 15.9726C14.5196 15.9273 14.6524 15.9866 14.6978 16.1038C14.7446 16.221 14.6853 16.3523 14.5681 16.3991C14.5649 16.3991 14.3134 16.5054 14.0259 16.746C13.7993 16.9366 13.5587 17.2069 13.429 17.5648C13.3009 17.9226 13.2837 18.3741 13.5024 18.932C13.6509 19.3101 13.9055 19.7351 14.304 20.2117C17.2884 23.782 16.1259 25.9493 14.7462 27.1025C13.8774 27.829 12.9118 28.1447 12.8853 28.1525C12.7806 28.1869 12.6696 28.1415 12.6165 28.0509C12.5946 28.0118 12.5899 27.9837 12.5853 27.94C12.5837 27.8415 12.6462 27.7509 12.7431 27.7181C12.7665 27.7103 13.6509 27.4228 14.4509 26.7525C15.6759 25.7275 16.6915 23.7821 13.9509 20.5056C13.5181 19.9884 13.24 19.5197 13.0743 19.0994C12.8102 18.4228 12.8352 17.8635 12.9962 17.4135C13.1571 16.9619 13.4524 16.6276 13.7306 16.3963C14.0696 16.1119 14.3978 15.9744 14.3993 15.9728L14.4024 15.9726ZM6.35563 4.63495C6.69782 4.63495 7.00563 4.77402 7.22907 4.99745L7.24157 5.00995C7.4572 5.23183 7.59001 5.53652 7.59001 5.86932C7.59001 6.2115 7.45094 6.51932 7.22907 6.74276C7.00564 6.96463 6.69783 7.10369 6.35563 7.10369C6.01501 7.10369 5.70719 6.96463 5.48375 6.74276C5.26031 6.51932 5.12125 6.21152 5.12125 5.86932C5.12125 5.52869 5.26031 5.21931 5.48375 4.99743L5.49781 4.98337C5.71969 4.76775 6.02283 4.63495 6.35563 4.63495ZM6.90563 5.32088C6.76501 5.18025 6.56969 5.09275 6.35563 5.09275C6.14625 5.09275 5.95719 5.17556 5.81655 5.30994L5.80717 5.32088C5.66655 5.4615 5.58061 5.65525 5.58061 5.86932C5.58061 6.08338 5.66811 6.27868 5.80717 6.41776V6.41932C5.9478 6.55995 6.14155 6.64588 6.35562 6.64588C6.56968 6.64588 6.76498 6.55838 6.90562 6.41776C7.04624 6.27714 7.13218 6.08338 7.13218 5.86932C7.13218 5.65994 7.04937 5.47088 6.91499 5.33024L6.90563 5.32088ZM34.1477 5.59119C34.2743 5.59119 34.3758 5.69431 34.3758 5.82088C34.3758 5.94744 34.2742 6.05056 34.1477 6.05056H24.0741C23.9475 6.05056 23.8459 5.94744 23.8459 5.82088C23.8459 5.69431 23.9475 5.59119 24.0741 5.59119H34.1477ZM17.6945 4.63495C18.0366 4.63495 18.3445 4.77401 18.5679 4.99745L18.5804 5.00995C18.796 5.23182 18.9288 5.53651 18.9288 5.86931C18.9288 6.2115 18.7898 6.51931 18.5679 6.74275C18.3445 6.96463 18.0367 7.10369 17.6945 7.10369C17.3538 7.10369 17.046 6.96462 16.8226 6.74275C16.5991 6.51931 16.4601 6.21151 16.4601 5.86931C16.4601 5.52868 16.5991 5.21931 16.8226 4.99743L16.8366 4.98336C17.0585 4.76774 17.3617 4.63495 17.6945 4.63495ZM18.2429 5.32087C18.1023 5.18024 17.9085 5.09274 17.6945 5.09274C17.4851 5.09274 17.2945 5.17555 17.1554 5.30993L17.146 5.32087C17.0054 5.46149 16.9194 5.65524 16.9194 5.86931C16.9194 6.08337 17.0069 6.27867 17.146 6.41775V6.41931C17.2866 6.55994 17.4804 6.64588 17.6944 6.64588C17.9085 6.64588 18.1038 6.55838 18.2429 6.41775C18.3835 6.27713 18.471 6.08338 18.471 5.86931C18.471 5.65994 18.3882 5.47087 18.2538 5.33023L18.2429 5.32087ZM13.9149 4.63495C14.2555 4.63495 14.5649 4.77401 14.7868 4.99745L14.7993 5.00995C15.0149 5.23182 15.1477 5.53651 15.1477 5.86931C15.1477 6.2115 15.0102 6.51931 14.7868 6.74275C14.5649 6.96463 14.2555 7.10369 13.9149 7.10369C13.5743 7.10369 13.2649 6.96462 13.043 6.74275H13.0414C12.818 6.51931 12.6805 6.21151 12.6805 5.86931C12.6805 5.52868 12.818 5.21931 13.0414 4.99743L13.0555 4.98336C13.2774 4.76774 13.5805 4.63495 13.9149 4.63495ZM14.4633 5.32087C14.3227 5.18024 14.129 5.09274 13.9149 5.09274C13.7055 5.09274 13.5149 5.17555 13.3742 5.30993L13.3649 5.32087C13.2242 5.46149 13.1383 5.65524 13.1383 5.86931C13.1383 6.08337 13.2258 6.27867 13.3649 6.41775V6.41931C13.5055 6.55994 13.6992 6.64588 13.9149 6.64588C14.1289 6.64588 14.3227 6.55838 14.4633 6.41775C14.6039 6.27713 14.6899 6.08338 14.6899 5.86931C14.6899 5.65994 14.6071 5.47087 14.4727 5.33023L14.4633 5.32087ZM10.1353 4.63495C10.4759 4.63495 10.7853 4.77401 11.0072 4.99745L11.0213 5.00995C11.2369 5.23182 11.3697 5.53651 11.3697 5.86931C11.3697 6.2115 11.2306 6.51931 11.0072 6.74275C10.7853 6.96463 10.476 7.10369 10.1353 7.10369C9.79469 7.10369 9.48688 6.96462 9.26344 6.74275H9.26187C9.04 6.51931 8.90094 6.21151 8.90094 5.86931C8.90094 5.52868 9.04 5.21931 9.26187 4.99743L9.27594 4.98336C9.49781 4.76774 9.80252 4.63495 10.1353 4.63495ZM10.6838 5.32087C10.5431 5.18024 10.3494 5.09274 10.1353 5.09274C9.92594 5.09274 9.73532 5.17555 9.59624 5.30993L9.58686 5.32087C9.44624 5.46149 9.35874 5.65524 9.35874 5.86931C9.35874 6.08337 9.44624 6.27867 9.58686 6.41775L9.5853 6.41931C9.72592 6.55994 9.91968 6.64588 10.1353 6.64588C10.3494 6.64588 10.5447 6.55838 10.6837 6.41775C10.8244 6.27713 10.9119 6.08338 10.9119 5.86931C10.9119 5.65994 10.8291 5.47087 10.6947 5.33023L10.6838 5.32087ZM9.2822 37.4069C9.2822 37.1554 9.48845 36.9491 9.74 36.9491C9.99312 36.9491 10.1994 37.1554 10.1994 37.4069V38.7601C10.1994 39.0757 10.0712 39.3616 9.86342 39.5694C9.85248 39.5804 9.84311 39.5897 9.83061 39.5991C9.62592 39.7897 9.35249 39.9053 9.05405 39.9053H3.96204C3.64797 39.9053 3.3636 39.7772 3.15424 39.5694L3.15111 39.5663C2.9433 39.3585 2.81673 39.0741 2.81673 38.76V37.4069C2.81673 37.1554 3.02142 36.9491 3.27454 36.9491C3.52765 36.9491 3.73234 37.1554 3.73234 37.4069V38.76C3.73234 38.8241 3.75734 38.8819 3.79796 38.9226L3.79952 38.9241C3.84015 38.9647 3.89796 38.9897 3.96202 38.9897H9.05403C9.11028 38.9897 9.16185 38.9694 9.20247 38.935L9.21497 38.9225C9.25716 38.8804 9.28216 38.8225 9.28216 38.76L9.2822 37.4069ZM36.6651 37.4069C36.6651 37.1554 36.8713 36.9491 37.1228 36.9491C37.376 36.9491 37.5807 37.1554 37.5807 37.4069V38.7601C37.5807 39.0757 37.4525 39.3616 37.2463 39.5694C37.2353 39.5804 37.2244 39.5897 37.2119 39.6007C37.0057 39.7897 36.7338 39.9054 36.4369 39.9054H31.3433C31.0292 39.9054 30.7448 39.7772 30.537 39.5694H30.5339C30.3261 39.3616 30.1995 39.0772 30.1995 38.7601V37.4069C30.1995 37.1554 30.4042 36.9491 30.6573 36.9491C30.9089 36.9491 31.1151 37.1554 31.1151 37.4069V38.7601C31.1151 38.8226 31.1401 38.8804 31.1823 38.9226H31.1808C31.223 38.9647 31.2808 38.9897 31.3433 38.9897H36.4369C36.4931 38.9897 36.5447 38.9694 36.5838 38.9366L36.5978 38.9226C36.64 38.8804 36.665 38.8226 36.665 38.7601L36.6651 37.4069ZM2.74298 0.0976562H37.6555C38.3555 0.0976562 38.993 0.383593 39.4523 0.844538C39.9133 1.30702 40.1992 1.94142 40.1992 2.64142V34.0179C40.1992 34.7179 39.9133 35.3538 39.4523 35.8148C38.9914 36.2757 38.3555 36.5616 37.6555 36.5616H2.74298C2.04298 36.5616 1.40706 36.2757 0.9461 35.8148C0.485179 35.3523 0.199219 34.7179 0.199219 34.0179V2.64142C0.199219 1.94142 0.485155 1.3055 0.9461 0.844538C1.40858 0.383617 2.04298 0.0976562 2.74298 0.0976562ZM37.6555 1.0133H2.74298C2.2961 1.0133 1.8883 1.19611 1.59298 1.49142C1.29767 1.78673 1.11486 2.19454 1.11486 2.64142V34.0179C1.11486 34.4648 1.29767 34.8726 1.59298 35.1679C1.88829 35.4632 2.2961 35.646 2.74298 35.646H37.6555C38.1039 35.646 38.5101 35.4632 38.8055 35.1679C39.1008 34.8726 39.2836 34.4648 39.2836 34.0179V2.64142C39.2836 2.19454 39.1008 1.78674 38.8055 1.49142C38.5101 1.19611 38.1039 1.0133 37.6555 1.0133ZM4.92419 3.01486H35.4742C36.0774 3.01486 36.6258 3.2633 37.0243 3.65862C37.4211 4.0555 37.668 4.60551 37.668 5.20863V6.53051C37.668 7.13519 37.4211 7.68207 37.0243 8.08051C36.6274 8.47739 36.0774 8.72427 35.4742 8.72427H4.92419C4.32107 8.72427 3.77263 8.4774 3.37418 8.08051C2.97731 7.68364 2.73042 7.13519 2.73042 6.53051V5.20863C2.73042 4.60551 2.97886 4.05706 3.37418 3.65862C3.77106 3.26175 4.32107 3.01486 4.92419 3.01486ZM35.4742 3.93206H4.92419C4.57262 3.93206 4.25387 4.07425 4.02263 4.30707C3.78981 4.53831 3.64763 4.85707 3.64763 5.20863V6.53051C3.64763 6.88207 3.78981 7.20083 4.02263 7.43207C4.25387 7.66488 4.57263 7.80707 4.92419 7.80707H35.4742C35.8258 7.80707 36.1446 7.66488 36.3758 7.43207C36.6086 7.20082 36.7508 6.88207 36.7508 6.53051V5.20863C36.7508 4.85706 36.6086 4.53831 36.3758 4.30707C36.1446 4.07425 35.8258 3.93206 35.4742 3.93206ZM4.93059 10.9837H35.4274C35.9462 10.9837 36.4197 11.1962 36.7618 11.5384C37.104 11.8805 37.3149 12.3524 37.3149 12.8712V31.2276C37.3149 31.7464 37.104 32.2182 36.7618 32.5604C36.4196 32.9026 35.9477 33.1151 35.4274 33.1151H4.93059C4.41183 33.1151 3.93839 32.9026 3.59623 32.5604C3.25404 32.2182 3.0431 31.7463 3.0431 31.2276V12.8712C3.0431 12.3524 3.25404 11.8805 3.59623 11.5384C3.93841 11.1962 4.41031 10.9837 4.93059 10.9837ZM35.4274 11.8993H4.93059C4.6634 11.8993 4.42123 12.0103 4.24467 12.1868C4.0681 12.3618 3.95873 12.6056 3.95873 12.8712V31.2276C3.95873 31.4932 4.06811 31.7354 4.24467 31.912C4.42123 32.0885 4.66343 32.1979 4.93059 32.1979H35.4274C35.6946 32.1979 35.9368 32.0885 36.1134 31.912C36.2899 31.7354 36.3993 31.4932 36.3993 31.2276V12.8712C36.3993 12.6056 36.2899 12.3618 36.1134 12.1868C35.9368 12.0103 35.6946 11.8993 35.4274 11.8993ZM27.4726 15.9729C27.5898 15.9276 27.7211 15.987 27.7664 16.1042C27.8133 16.2214 27.7539 16.3526 27.6367 16.3995C27.6351 16.3995 27.3836 16.5057 27.0945 16.7464C26.8679 16.937 26.6273 17.2073 26.4976 17.5651C26.3695 17.9229 26.3539 18.3745 26.5711 18.9323C26.7195 19.3105 26.9742 19.7355 27.3726 20.212C27.3789 20.2183 27.382 20.2261 27.3867 20.2323C30.3008 24.1901 28.746 26.3775 27.3492 27.4059C26.6429 27.9247 25.9726 28.1466 25.9554 28.1528C25.9398 28.1591 25.9226 28.1622 25.9085 28.1638L25.8945 28.1653C25.7913 28.17 25.6945 28.1028 25.6648 27.9981C25.6351 27.895 25.682 27.7888 25.771 27.7356C25.7867 27.7278 25.796 27.7231 25.8132 27.7169C25.8288 27.7106 26.4351 27.5122 27.0804 27.0372C28.3273 26.1169 29.7023 24.1466 27.0195 20.5012C26.5883 19.9855 26.3117 19.5184 26.146 19.0981C25.882 18.4215 25.907 17.8621 26.0679 17.4121C26.2289 16.9606 26.5242 16.6262 26.8023 16.3949C27.1413 16.1106 27.4695 15.9731 27.4726 15.9715L27.4726 15.9729ZM20.9366 15.9729C21.0538 15.9276 21.1866 15.987 21.2319 16.1042C21.2788 16.2214 21.2194 16.3526 21.1022 16.3995C21.1007 16.3995 20.8476 16.5057 20.56 16.7464C20.3335 16.937 20.0928 17.2073 19.9632 17.5651C19.835 17.9229 19.8194 18.3745 20.0366 18.9323C20.185 19.3105 20.4397 19.7355 20.8382 20.212C23.8225 23.7823 22.66 25.9496 21.2804 27.1028C20.4116 27.8294 19.446 28.145 19.4194 28.1528C19.3147 28.1872 19.2038 28.1419 19.1507 28.0513C19.1288 28.0122 19.1241 27.9841 19.1194 27.9403C19.1179 27.8419 19.1804 27.7513 19.2772 27.7185C19.3007 27.7106 20.185 27.4231 20.985 26.7528C22.2101 25.7278 23.2257 23.7825 20.485 20.506C20.0522 19.9888 19.7741 19.5201 19.6085 19.0998C19.3444 18.4232 19.3694 17.8638 19.5304 17.4138C19.6913 16.9623 19.9866 16.6279 20.2647 16.3966C20.6038 16.1123 20.9319 15.9747 20.9335 15.9732L20.9366 15.9729Z" fill="#9CA3AF"/>
</svg>
