<svg width="43" height="39" viewBox="0 0 43 39" fill="none" xmlns="http://www.w3.org/2000/svg">
<path d="M26.0144 7.46264e-05C25.81 0.0017414 25.6026 0.0294912 25.3966 0.0846533C24.0781 0.437696 23.2859 1.80936 23.6393 3.1275C23.9928 4.44566 25.365 5.2378 26.6834 4.88478C28.0019 4.53173 28.7941 3.16007 28.4407 1.84193C28.1425 0.729736 27.1189 -0.00854199 26.0144 7.46264e-05ZM18.738 0.876784C18.6392 0.879641 18.5424 0.904746 18.4547 0.950227C18.3671 0.995709 18.2908 1.06039 18.2316 1.13946C18.1278 1.27793 18.083 1.45179 18.1067 1.62318C18.1305 1.79458 18.221 1.94964 18.3586 2.05463C19.3962 2.83796 20.0345 4.36964 20.112 6.34716C20.1894 8.3247 19.7032 10.7043 18.62 13.0365C17.8917 14.6048 16.9471 16.0271 15.8976 17.1701C15.0969 16.502 14.3372 15.9275 13.6507 15.468C12.9206 14.9792 12.2761 14.6155 11.7076 14.4093C11.4234 14.3062 11.1562 14.2398 10.8745 14.235C10.5929 14.2303 10.2553 14.307 10.008 14.5541C9.99812 14.5648 9.9882 14.5764 9.97728 14.5874C9.97562 14.5892 9.97397 14.5909 9.97232 14.5927C9.83144 14.751 9.75257 14.9382 9.71591 15.1245L5.95401 24.0672C5.95144 24.0734 5.94896 24.0797 5.94657 24.086L2.74863 31.6893C2.73687 31.7134 2.7266 31.7382 2.71787 31.7636L0.44918 37.1571C0.398903 37.2774 0.385608 37.41 0.410993 37.5379C0.436377 37.6658 0.49929 37.7833 0.591704 37.8753C0.684118 37.9673 0.801845 38.0297 0.929866 38.0545C1.05789 38.0793 1.1904 38.0654 1.31049 38.0146L9.64567 34.5129C9.66214 34.5067 9.67836 34.4998 9.69428 34.4923L19.3983 30.4151C19.3991 30.4147 19.4013 30.4142 19.4021 30.4138L23.3498 28.7553C23.5537 28.7164 23.7602 28.6292 23.9266 28.463C24.1739 28.2159 24.2506 27.8779 24.2457 27.5965C24.2408 27.315 24.1745 27.0487 24.0713 26.7646C23.865 26.1966 23.5005 25.5525 23.0113 24.8228C22.6838 24.3341 22.2969 23.8077 21.8603 23.2565C23.0142 22.1824 24.4606 21.2147 26.0606 20.4726C28.3945 19.3902 30.776 18.9032 32.7551 18.9807C34.7342 19.0581 36.2639 19.6972 37.0476 20.7341C37.0998 20.8028 37.1649 20.8606 37.2394 20.9041C37.3139 20.9476 37.3963 20.976 37.4817 20.9877C37.5672 20.9994 37.6542 20.9941 37.7376 20.9721C37.821 20.9501 37.8993 20.9119 37.9679 20.8597C38.037 20.8079 38.0953 20.743 38.1393 20.6687C38.1833 20.5944 38.2122 20.5122 38.2243 20.4267C38.2364 20.3412 38.2316 20.2541 38.21 20.1705C38.1885 20.0869 38.1506 20.0084 38.0986 19.9394C36.9866 18.4683 35.0403 17.7554 32.8089 17.6681C30.5775 17.5808 28.0136 18.1186 25.5081 19.2806C23.8142 20.0662 22.2768 21.08 21.0208 22.2388C20.3351 21.4381 19.5624 20.6017 18.7188 19.7587C18.1029 19.1432 17.49 18.5651 16.8923 18.0309C18.035 16.7831 19.0341 15.2608 19.8108 13.5884C20.9737 11.0845 21.5119 8.52291 21.4245 6.29274C21.3372 4.06255 20.624 2.11936 19.152 1.00813C19.033 0.918396 18.8869 0.872496 18.738 0.876784ZM26.031 1.31128C26.5559 1.30384 27.0299 1.6478 27.1731 2.18159C27.3427 2.8142 26.9774 3.44746 26.3438 3.61712C25.7101 3.7868 25.0766 3.42049 24.9069 2.78784C24.7373 2.15523 25.1026 1.52197 25.7362 1.35231C25.8352 1.32587 25.9339 1.31267 26.031 1.31128ZM14.3801 3.63891C14.2935 3.63857 14.2076 3.65537 14.1275 3.68836C14.0474 3.72135 13.9747 3.76986 13.9134 3.83111C13.8522 3.89235 13.8037 3.96512 13.7707 4.0452C13.7377 4.12529 13.7209 4.21112 13.7212 4.29773C13.7212 5.81741 12.5061 7.03424 10.9847 7.03424C10.8981 7.0339 10.8123 7.05071 10.7322 7.0837C10.6521 7.11669 10.5794 7.16521 10.5181 7.22645C10.4569 7.2877 10.4084 7.36046 10.3754 7.44054C10.3424 7.52062 10.3256 7.60644 10.3259 7.69306C10.3261 7.77934 10.3433 7.86475 10.3765 7.94438C10.4097 8.02402 10.4583 8.09633 10.5195 8.15716C10.5807 8.218 10.6533 8.26617 10.7331 8.29892C10.8129 8.33167 10.8984 8.34835 10.9847 8.34802C12.5062 8.34804 13.7212 9.56487 13.7212 11.0845C13.7209 11.1711 13.7377 11.257 13.7707 11.3371C13.8037 11.4171 13.8522 11.4899 13.9134 11.5511C13.9747 11.6124 14.0474 11.6609 14.1275 11.6939C14.2076 11.7269 14.2935 11.7437 14.3801 11.7433C14.4664 11.7432 14.5518 11.7261 14.6314 11.6929C14.7111 11.6598 14.7834 11.6112 14.8443 11.55C14.9052 11.4889 14.9534 11.4163 14.9862 11.3365C15.019 11.2567 15.0357 11.1712 15.0354 11.0849C15.0354 9.56524 16.2556 8.34841 17.7771 8.34841C17.9504 8.34773 18.1165 8.27847 18.239 8.15575C18.3615 8.03303 18.4304 7.86683 18.4307 7.69344C18.4311 7.60726 18.4144 7.52186 18.3818 7.44211C18.3491 7.36236 18.3011 7.28983 18.2404 7.22865C18.1797 7.16747 18.1075 7.11884 18.028 7.08555C17.9485 7.05226 17.8633 7.03495 17.7771 7.03461C16.2556 7.03459 15.0354 5.81776 15.0354 4.2981C15.0353 4.28793 15.035 4.27776 15.0344 4.2676C15.0271 4.09892 14.9551 3.93954 14.8334 3.82257C14.7116 3.70561 14.5489 3.63941 14.3801 3.63891ZM14.3801 6.50232C14.6899 6.97617 15.0951 7.38241 15.5695 7.69178C15.095 8.00116 14.69 8.40733 14.3801 8.88123C14.0708 8.40709 13.6645 8.00129 13.1906 7.69177C13.6644 7.38232 14.0708 6.97627 14.3801 6.50232ZM27.7268 6.51646C27.5533 6.50916 27.3841 6.57089 27.256 6.68813C27.128 6.80536 27.0516 6.96855 27.0437 7.14197C27.0437 7.14197 26.9583 9.11304 25.6824 11.1961C24.3862 13.3124 22.7037 14.6068 22.7037 14.6068C22.5661 14.7118 22.4756 14.8669 22.4518 15.0383C22.4281 15.2097 22.4729 15.3835 22.5767 15.522C22.6288 15.5907 22.694 15.6485 22.7685 15.692C22.843 15.7355 22.9253 15.7639 23.0108 15.7756C23.0963 15.7873 23.1832 15.7819 23.2666 15.76C23.35 15.738 23.4283 15.6998 23.497 15.6476C23.497 15.6476 25.364 14.2258 26.8013 11.8793C28.259 9.49951 28.356 7.19965 28.356 7.19965C28.3596 7.11346 28.3462 7.0274 28.3165 6.94639C28.2868 6.86539 28.2415 6.79104 28.183 6.72759C28.1246 6.66413 28.0542 6.61283 27.9759 6.57661C27.8976 6.54039 27.813 6.51992 27.7268 6.51646ZM32.8422 8.16348C32.8109 8.1634 32.7796 8.16555 32.7487 8.16993C32.7179 8.17421 32.6875 8.18068 32.6576 8.18927C32.5213 8.22864 32.4014 8.31113 32.3159 8.42437C32.2305 8.53762 32.184 8.67552 32.1835 8.8174C32.1835 10.3371 30.9684 11.5552 29.4469 11.5552C29.3603 11.5548 29.2745 11.5717 29.1944 11.6046C29.1143 11.6376 29.0416 11.6862 28.9803 11.7474C28.9191 11.8086 28.8706 11.8814 28.8376 11.9615C28.8046 12.0416 28.7878 12.1274 28.7881 12.214C28.7885 12.3002 28.8058 12.3855 28.839 12.4649C28.8723 12.5444 28.9209 12.6166 28.9821 12.6773C29.0433 12.738 29.1158 12.7861 29.1956 12.8188C29.2753 12.8514 29.3607 12.8681 29.4469 12.8678C30.9683 12.8678 32.1834 14.0846 32.1834 15.6043C32.1831 15.6909 32.1999 15.7767 32.2328 15.8568C32.2658 15.9369 32.3144 16.0096 32.3756 16.0709C32.4368 16.1321 32.5096 16.1806 32.5897 16.2136C32.6698 16.2466 32.7556 16.2634 32.8422 16.2631C32.8528 16.2633 32.8634 16.2632 32.874 16.2629C32.8842 16.2622 32.8945 16.2613 32.9047 16.2602C32.9152 16.2593 32.9257 16.2583 32.9362 16.2569C32.9463 16.2553 32.9564 16.2534 32.9665 16.2512C33.0847 16.228 33.1943 16.1727 33.2831 16.0913C33.372 16.0099 33.4367 15.9056 33.4703 15.7899C33.4738 15.7798 33.4771 15.7697 33.4802 15.7595C33.4921 15.7087 33.4979 15.6566 33.4975 15.6044C33.4975 14.0847 34.719 12.8678 36.2399 12.8673C36.3261 12.8676 36.4115 12.8509 36.4912 12.8182C36.5709 12.7854 36.6434 12.7373 36.7046 12.6765C36.7657 12.6158 36.8142 12.5436 36.8475 12.4641C36.8807 12.3845 36.8979 12.2993 36.8982 12.2131C36.8985 12.1265 36.8817 12.0406 36.8487 11.9606C36.8157 11.8805 36.7672 11.8077 36.706 11.7465C36.6447 11.6852 36.572 11.6367 36.4919 11.6037C36.4118 11.5707 36.326 11.5539 36.2393 11.5543C34.7179 11.5543 33.4964 10.3361 33.4964 8.81647C33.4958 8.64331 33.4267 8.47743 33.3042 8.35498C33.1818 8.23253 33.0153 8.16415 32.8422 8.16348ZM32.8409 11.0218C33.1507 11.4956 33.5573 11.9019 34.0316 12.2112C33.5571 12.5206 33.1508 12.9267 32.8409 13.4007C32.5317 12.9266 32.1266 12.5207 31.6527 12.2112C32.1265 11.9018 32.5318 11.4958 32.8409 11.0218ZM39.8879 11.3012C39.6835 11.3028 39.4761 11.3293 39.2701 11.3845C37.9517 11.7375 37.1594 13.1092 37.5128 14.4273C37.8663 15.7455 39.2385 16.5389 40.557 16.1859C41.8754 15.8328 42.6677 14.4599 42.3142 13.1418C42.016 12.0296 40.9925 11.2926 39.8879 11.3012ZM39.9053 12.6111C40.4302 12.6037 40.9029 12.9476 41.046 13.4814C41.2157 14.114 40.8516 14.7473 40.218 14.9169C39.5844 15.0866 38.9508 14.7216 38.7812 14.0889C38.6115 13.4563 38.9769 12.8231 39.6105 12.6534C39.7097 12.627 39.8078 12.6123 39.9053 12.6111ZM11.0508 15.595C11.1217 15.6104 11.1592 15.6052 11.2624 15.6424C11.6583 15.786 12.2397 16.1041 12.9171 16.5576C13.5275 16.9662 14.2187 17.4872 14.9551 18.0969C14.7889 18.2418 14.6223 18.3803 14.4538 18.5109C14.3164 18.6175 14.2269 18.7743 14.2051 18.9469C14.1832 19.1194 14.2308 19.2936 14.3373 19.4312C14.3901 19.4994 14.4558 19.5565 14.5307 19.5993C14.6056 19.6421 14.6883 19.6697 14.7739 19.6806C14.8594 19.6914 14.9463 19.6852 15.0296 19.6625C15.1128 19.6397 15.1907 19.6007 15.2588 19.5478C15.4964 19.3632 15.7302 19.1668 15.9599 18.9594C16.5572 19.4908 17.1721 20.0695 17.7902 20.6872C18.6397 21.5361 19.4168 22.3791 20.096 23.1776C19.9038 23.3906 19.7217 23.6092 19.5499 23.8299C19.4434 23.9674 19.3959 24.1416 19.4177 24.3142C19.4396 24.4868 19.5291 24.6436 19.6665 24.7502C19.8034 24.8573 19.9772 24.9057 20.1497 24.8847C20.3222 24.8638 20.4794 24.7754 20.5868 24.6387C20.6989 24.495 20.8165 24.3513 20.9393 24.2093C21.3141 24.688 21.644 25.1412 21.9224 25.5564C22.3761 26.2334 22.6938 26.8141 22.8375 27.2099C22.8747 27.312 22.8695 27.352 22.8849 27.4226C22.8144 27.4072 22.7772 27.408 22.676 27.3713C22.2801 27.2276 21.6961 26.9134 21.0188 26.4599C19.664 25.553 17.918 24.0937 16.1494 22.3263C14.3809 20.559 12.9208 18.8147 12.0133 17.4609C11.5595 16.7839 11.2457 16.1993 11.1019 15.8036C11.0647 15.7012 11.0662 15.6657 11.0508 15.595ZM10.2882 17.1523C10.4665 17.4773 10.6804 17.8234 10.9265 18.1905C11.9047 19.6498 13.4022 21.4378 15.2203 23.2547C17.0384 25.0715 18.828 26.5683 20.2883 27.5459C20.6547 27.7912 20.9995 28.0036 21.324 28.1817L19.2168 29.0673C16.7914 27.4738 14.0094 26.0927 11.0675 25.0273C9.87229 24.5945 8.66222 24.2204 7.44912 23.9032L10.2882 17.1523ZM30.605 21.641C30.5188 21.6407 30.4334 21.6574 30.3537 21.6902C30.274 21.7229 30.2015 21.771 30.1404 21.8318C30.0793 21.8925 30.0307 21.9647 29.9975 22.0442C29.9643 22.1238 29.9471 22.2091 29.9468 22.2952C29.9468 23.8149 28.7317 25.0318 27.2103 25.0317C27.1237 25.0314 27.0378 25.0482 26.9578 25.0812C26.8777 25.1142 26.8049 25.1627 26.7437 25.2239C26.6824 25.2852 26.6339 25.3579 26.6009 25.438C26.5679 25.5181 26.5511 25.6039 26.5514 25.6906C26.5516 25.7768 26.5688 25.8623 26.602 25.9419C26.6352 26.0215 26.6838 26.0938 26.745 26.1547C26.8062 26.2155 26.8788 26.2637 26.9586 26.2964C27.0385 26.3292 27.124 26.3459 27.2103 26.3455C28.7317 26.3455 29.9468 27.5675 29.9468 29.0872C29.9471 29.1733 29.9644 29.2586 29.9977 29.3381C30.031 29.4176 30.0796 29.4898 30.1407 29.5505C30.2019 29.6112 30.2744 29.6592 30.3542 29.6919C30.4339 29.7246 30.5193 29.7412 30.6055 29.7409C30.7787 29.7402 30.9446 29.6712 31.067 29.5487C31.1894 29.4263 31.2585 29.2604 31.2592 29.0872C31.2592 27.5675 32.4807 26.3456 34.0021 26.3456C34.0884 26.3459 34.1739 26.3293 34.2538 26.2965C34.3336 26.2638 34.4062 26.2156 34.4674 26.1547C34.5286 26.0939 34.5772 26.0216 34.6104 25.942C34.6436 25.8623 34.6608 25.7769 34.6609 25.6906C34.6613 25.5589 34.6219 25.4302 34.5481 25.3212C34.4743 25.2121 34.3693 25.1278 34.2469 25.0792C34.2372 25.0751 34.2274 25.0712 34.2174 25.0676C34.1779 25.0539 34.1371 25.044 34.0956 25.0381C34.0849 25.037 34.0742 25.0361 34.0634 25.0354C34.043 25.0332 34.0224 25.032 34.0019 25.0317C32.4805 25.0317 31.259 23.8148 31.259 22.2952C31.2583 22.122 31.1892 21.9562 31.0667 21.8337C30.9443 21.7113 30.7782 21.6416 30.605 21.641ZM30.6025 24.4992C30.9127 24.9738 31.3207 25.3791 31.7958 25.6887C31.3205 25.9988 30.9126 26.4054 30.6025 26.8807C30.293 26.4057 29.8875 25.9988 29.4131 25.6887C29.8873 25.3793 30.2931 24.9733 30.6025 24.4992ZM6.93525 25.1234C8.16973 25.4405 9.40567 25.8208 10.6228 26.2616C13.1729 27.1852 15.5978 28.3525 17.7493 29.6839L9.40517 33.1881C9.02849 33.0382 8.64945 32.8917 8.26827 32.7536C6.93969 32.2725 5.59191 31.8604 4.24361 31.5219L6.93525 25.1234ZM3.72835 32.7459C5.03828 33.068 6.34915 33.4652 7.64405 33.9277L2.28511 36.1784L3.72835 32.7459Z" fill="#9CA3AF"/>
</svg>
