<svg width="33" height="37" viewBox="0 0 33 37" fill="none" xmlns="http://www.w3.org/2000/svg">
<path d="M24.0741 6.13358C23.5472 5.83501 22.8776 6.02162 22.579 6.54851C22.2804 7.0754 22.4671 7.745 22.9939 8.04357C27.3189 10.4914 30.006 15.0974 30.006 20.0611C30.006 27.6725 23.8128 33.8657 16.2014 33.8657C8.59 33.8657 2.3968 27.6725 2.3968 20.0611C2.3968 12.8976 7.95333 6.88001 15.0686 6.30263L15.2596 6.33775L13.3408 7.91843C12.8732 8.30482 12.8051 8.99637 13.1915 9.46399C13.4089 9.72743 13.7228 9.86355 14.039 9.86355C14.2848 9.86355 14.5307 9.78232 14.7371 9.61327L18.8227 6.24774C19.0752 6.03918 19.2223 5.72743 19.2223 5.40032C19.2223 5.07321 19.0752 4.76146 18.8227 4.5529L14.7371 1.18737C14.2695 0.803175 13.5779 0.869037 13.1915 1.33665C12.8051 1.80427 12.8732 2.49582 13.3408 2.88221L14.8469 4.1226C6.61634 4.81635 0.199219 11.7757 0.199219 20.0633C0.199219 28.8866 7.37814 36.0633 16.1992 36.0633C25.0203 36.0633 32.1992 28.8844 32.1992 20.0633C32.1992 14.3092 29.0862 8.97222 24.0741 6.13578V6.13358Z" fill="#9CA3AF"/>
</svg>
