<svg width="48" height="52" viewBox="0 0 48 52" fill="none" xmlns="http://www.w3.org/2000/svg">
<path d="M36.9101 1.47674C36.8537 1.35186 36.7656 1.25146 36.6652 1.17065C36.6407 1.14616 36.6162 1.12168 36.5893 1.09474H36.5697C36.5623 1.0874 36.5501 1.0874 36.5452 1.0825C36.4815 1.04577 36.4203 1.01883 36.3566 0.994346C36.3444 0.994346 36.3371 0.982103 36.3248 0.982103C36.3126 0.974756 36.2881 0.974757 36.2758 0.969859C36.2318 0.957615 36.1877 0.945371 36.1436 0.945371C36.1216 0.938025 36.0946 0.925781 36.0701 0.925781H11.9352C11.9034 0.925781 11.8715 0.938025 11.847 0.945371C11.803 0.952718 11.7589 0.964962 11.7148 0.969859C11.6952 0.977205 11.6781 0.977205 11.6585 0.982103C11.6462 0.982103 11.634 0.994346 11.6218 1.00169C11.5581 1.02128 11.5018 1.04577 11.4454 1.0825C11.4332 1.08985 11.4259 1.08985 11.4136 1.09475C11.4014 1.10699 11.3818 1.12658 11.3646 1.13883C11.3157 1.17556 11.2716 1.21473 11.2275 1.26371C11.1712 1.32003 11.1345 1.37636 11.0953 1.45227C11.0953 1.45961 11.0879 1.46451 11.0879 1.47186C11.0879 1.4792 11.0806 1.4792 11.0757 1.4841L0.0808113 25.619C0.0244898 25.739 0 25.8688 0 26.0084V50.1433C0 50.5816 0.306094 50.9637 0.734642 51.0591C0.795861 51.0689 0.859529 51.0763 0.928092 51.0763C1.28561 51.0763 1.62355 50.8706 1.78027 50.5302L12.53 26.9338H35.4626L46.2124 50.5302C46.3691 50.8681 46.7021 51.0763 47.0646 51.0763C47.1282 51.0763 47.1968 51.0689 47.2654 51.0567C47.6914 50.9636 48 50.5865 48 50.1409V26.0059C48 25.8737 47.9682 25.7415 47.9192 25.6166L36.9101 1.47674ZM10.9898 25.8004L1.86111 45.8361V26.2072L10.9879 6.17146L10.9898 25.8004ZM35.1247 25.0608H29.7889V9.68971C29.7889 9.17057 29.3554 8.75672 28.8559 8.75672H19.1392C18.6201 8.75672 18.2062 9.17056 18.2062 9.68971L18.2038 25.0608H12.8631V2.79401H35.1249L35.1247 25.0608ZM46.1196 45.8363L37.0053 25.82V6.19108L46.1196 26.2074V45.8363Z" fill="white"/>
</svg>
