<svg width="49" height="48" viewBox="0 0 49 48" fill="none" xmlns="http://www.w3.org/2000/svg">
<path d="M47.7984 0H0.998438C0.66709 0 0.398438 0.268652 0.398438 0.6V47.4C0.398438 47.7313 0.66709 48 0.998438 48H47.7984C48.1298 48 48.3984 47.7313 48.3984 47.4V0.6C48.3984 0.268652 48.1298 0 47.7984 0ZM47.1984 1.2V38.475H1.59844V1.2H47.1984ZM1.59844 46.8V39.675H47.1984V46.8H1.59844Z" fill="#9CA3AF"/>
<path d="M8.54787 15.6593L7.9727 16.2345C7.73832 16.4689 7.73832 16.8486 7.9727 17.0829C8.08988 17.2001 8.2434 17.2587 8.39691 17.2587C8.55043 17.2587 8.70395 17.2001 8.82113 17.0829L9.3955 16.5086C10.6514 17.5684 12.2226 18.1491 13.8851 18.1491C15.5476 18.1491 17.1191 17.5684 18.375 16.5086L19.0229 17.1565C19.1401 17.2737 19.2936 17.3323 19.4471 17.3323C19.6006 17.3323 19.7541 17.2737 19.8713 17.1565C20.1057 16.9221 20.1057 16.5424 19.8713 16.308L19.2226 15.6593C21.4008 13.0726 21.4008 9.26841 19.2226 6.68149L19.9566 5.9475C20.191 5.71312 20.191 5.33343 19.9566 5.09906C19.7222 4.86468 19.3425 4.86468 19.1081 5.09906L18.3741 5.83306C15.7872 3.65461 11.9828 3.65461 9.3963 5.83302L8.82113 5.25785C8.58676 5.02347 8.20707 5.02347 7.9727 5.25785C7.73832 5.49222 7.73832 5.87191 7.9727 6.10628L8.54787 6.68146C6.36946 9.26822 6.36946 13.0726 8.54787 15.6593ZM9.92856 8.06214C10.0457 8.17933 10.1993 8.23793 10.3528 8.23793C10.5063 8.23793 10.6598 8.17933 10.777 8.06214C11.0114 7.82777 11.0114 7.44808 10.777 7.21371L10.2455 6.68226C11.3024 5.82412 12.5935 5.39466 13.8851 5.39466C15.1767 5.39466 16.4682 5.82427 17.5249 6.68226L17.1523 7.05492C16.9179 7.28929 16.9179 7.66898 17.1523 7.90336C17.2695 8.02054 17.423 8.07914 17.5765 8.07914C17.73 8.07914 17.8835 8.02054 18.0007 7.90336L18.3734 7.5307C20.0895 9.64418 20.0895 12.6966 18.3734 14.8101L17.9155 14.3522C17.6811 14.1178 17.3014 14.1178 17.067 14.3522C16.8327 14.5866 16.8327 14.9662 17.067 15.2006L17.5247 15.6583C16.498 16.4938 15.2269 16.9491 13.8851 16.9491C12.5433 16.9491 11.2722 16.4938 10.2458 15.6583L10.777 15.1271C11.0114 14.8927 11.0114 14.513 10.777 14.2786C10.5426 14.0443 10.1629 14.0443 9.92856 14.2786L9.39707 14.8101C7.68072 12.6966 7.68072 9.64421 9.39707 7.53066L9.92856 8.06214Z" fill="#9CA3AF"/>
<path d="M7.9727 33.492C7.73832 33.7264 7.73832 34.1061 7.9727 34.3404C8.08988 34.4576 8.2434 34.5162 8.39691 34.5162C8.55043 34.5162 8.70395 34.4576 8.82113 34.3404L9.3963 33.7653C10.6895 34.8544 12.2861 35.403 13.8851 35.403C15.4841 35.403 17.0807 34.8544 18.3741 33.7652L19.0229 34.414C19.1401 34.5312 19.2936 34.5897 19.4471 34.5897C19.6006 34.5897 19.7541 34.5312 19.8713 34.414C20.1057 34.1796 20.1057 33.7999 19.8713 33.5655L19.2226 32.9168C21.4008 30.3298 21.4008 26.5256 19.2225 23.9389L19.9566 23.205C20.191 22.9709 20.191 22.5909 19.9566 22.3565C19.7222 22.1222 19.3425 22.1222 19.1081 22.3565L18.3749 23.0897C17.119 22.0298 15.5475 21.4492 13.8851 21.4492C12.2226 21.4492 10.6514 22.0299 9.3955 23.0897L8.82113 22.5153C8.58676 22.281 8.20707 22.281 7.9727 22.5153C7.73832 22.7497 7.73832 23.1294 7.9727 23.3638L8.54787 23.9389C6.36946 26.5257 6.36946 30.3301 8.54787 32.9168L7.9727 33.492ZM9.39707 24.7881L9.92856 25.3196C10.0457 25.4368 10.1993 25.4954 10.3528 25.4954C10.5063 25.4954 10.6598 25.4368 10.777 25.3196C11.0114 25.0853 11.0114 24.7056 10.777 24.4712L10.2458 23.94C11.2722 23.1045 12.5433 22.6492 13.8851 22.6492C15.2268 22.6492 16.498 23.1045 17.5245 23.9399L17.1523 24.3121C16.9179 24.5462 16.9179 24.9262 17.1523 25.1605C17.2695 25.2777 17.423 25.3363 17.5765 25.3363C17.73 25.3363 17.8835 25.2777 18.0007 25.1605L18.3733 24.788C20.0895 26.9016 20.0895 29.954 18.3734 32.0676L17.9155 31.6097C17.6811 31.3753 17.3014 31.3753 17.067 31.6097C16.8327 31.844 16.8327 32.2237 17.067 32.4581L17.5249 32.916C15.4114 34.6318 12.3591 34.6318 10.2456 32.916L10.777 32.3846C11.0114 32.1502 11.0114 31.7705 10.777 31.5361C10.5426 31.3018 10.1629 31.3018 9.92856 31.5361L9.39707 32.0676C7.68072 29.9541 7.68072 26.9017 9.39707 24.7881Z" fill="#9CA3AF"/>
<path d="M29.5751 15.6587L28.9999 16.2339C28.7655 16.4683 28.7655 16.8479 28.9999 17.0823C29.1171 17.1995 29.2706 17.2581 29.4241 17.2581C29.5776 17.2581 29.7311 17.1995 29.8483 17.0823L30.4235 16.5071C31.717 17.5963 33.3135 18.1452 34.9126 18.1452C36.5113 18.1452 38.1079 17.5963 39.4014 16.5071L40.0501 17.1558C40.1672 17.273 40.3208 17.3316 40.4743 17.3316C40.6278 17.3316 40.7813 17.273 40.8985 17.1558C41.1329 16.9218 41.1329 16.5418 40.8985 16.3074L40.2498 15.6586C42.4282 13.0719 42.4282 9.26756 40.2498 6.6809L40.9838 5.94686C41.2181 5.71249 41.2181 5.33251 40.9838 5.09843C40.7494 4.86405 40.3697 4.86405 40.1353 5.09843L39.4013 5.83253C36.8144 3.65457 33.0105 3.65501 30.4236 5.8325L29.8483 5.25722C29.6139 5.02284 29.2342 5.02284 28.9999 5.25722C28.7655 5.49159 28.7655 5.87128 28.9999 6.10565L29.5751 6.68086C27.3969 9.26778 27.3969 13.072 29.5751 15.6587ZM30.9557 8.06151C31.0729 8.1787 31.2264 8.23729 31.3799 8.23729C31.5335 8.23729 31.687 8.1787 31.8042 8.06151C32.0385 7.82714 32.0385 7.44745 31.8042 7.21308L31.2727 6.68159C33.386 4.96542 36.4385 4.96505 38.5523 6.6817L38.1797 7.05429C37.9454 7.28866 37.9454 7.66864 38.1797 7.90272C38.2969 8.01991 38.4505 8.07851 38.604 8.07851C38.7575 8.07851 38.911 8.01991 39.0282 7.90272L39.4007 7.53018C41.1169 9.64365 41.1169 12.6959 39.4007 14.8094L38.9429 14.3516C38.7086 14.1172 38.3289 14.1172 38.0945 14.3516C37.8601 14.5856 37.8601 14.9656 38.0945 15.2L38.5522 15.6578C36.4385 17.3741 33.3859 17.3745 31.2726 15.658L31.8042 15.1265C32.0385 14.8921 32.0385 14.5124 31.8042 14.278C31.5698 14.0436 31.1901 14.0436 30.9557 14.278L30.4243 14.8095C28.7082 12.696 28.7082 9.64354 30.4243 7.53007L30.9557 8.06151Z" fill="#9CA3AF"/>
<path d="M28.9999 33.4922C28.7655 33.7265 28.7655 34.1062 28.9999 34.3406C29.1171 34.4578 29.2706 34.5164 29.4241 34.5164C29.5776 34.5164 29.7311 34.4578 29.8483 34.3406L30.4235 33.7653C31.717 34.8543 33.3135 35.4032 34.9123 35.4032C36.5113 35.4032 38.1079 34.8543 39.4014 33.7653L40.0501 34.4141C40.1672 34.5313 40.3208 34.5899 40.4743 34.5899C40.6278 34.5899 40.7813 34.5313 40.8985 34.4141C41.1329 34.18 41.1329 33.8001 40.8985 33.5657L40.2498 32.9169C42.4282 30.3302 42.4282 26.5258 40.2498 23.9391L40.9838 23.2051C41.2181 22.9708 41.2181 22.5911 40.9838 22.3567C40.7494 22.1223 40.3697 22.1223 40.1353 22.3567L39.4013 23.0907C36.8144 20.9125 33.0104 20.9125 30.4235 23.0907L29.8483 22.5155C29.6139 22.2811 29.2342 22.2811 28.9999 22.5155C28.7655 22.7499 28.7655 23.1296 28.9999 23.3639L29.5751 23.9391C27.3969 26.5258 27.3969 30.33 29.5751 32.9169L28.9999 33.4922ZM30.4243 24.7883L30.9557 25.3198C31.0729 25.437 31.2264 25.4956 31.3799 25.4956C31.5335 25.4956 31.687 25.437 31.8042 25.3198C32.0385 25.0854 32.0385 24.7057 31.8042 24.4713L31.2727 23.9399C33.3864 22.2237 36.4393 22.224 38.5521 23.9399L38.1797 24.3123C37.9454 24.5466 37.9454 24.9263 38.1797 25.1607C38.2969 25.2779 38.4505 25.3365 38.604 25.3365C38.7575 25.3365 38.911 25.2779 39.0282 25.1607L39.4006 24.7883C41.1169 26.9018 41.1169 29.9541 39.4007 32.0676L38.9429 31.6098C38.7086 31.3755 38.3289 31.3755 38.0945 31.6098C37.8601 31.8439 37.8601 32.2239 38.0945 32.4583L38.5522 32.916C36.4385 34.632 33.386 34.632 31.2727 32.9162L31.8042 32.3847C32.0385 32.1504 32.0385 31.7707 31.8042 31.5363C31.5698 31.3019 31.1901 31.3019 30.9557 31.5363L30.4243 32.0677C28.7082 29.9543 28.7082 26.9018 30.4243 24.7883Z" fill="#9CA3AF"/>
<path d="M34.5119 43.0234H32.4359C32.1046 43.0234 31.8359 43.2921 31.8359 43.6234C31.8359 43.9548 32.1046 44.2234 32.4359 44.2234H34.5119C34.8433 44.2234 35.1119 43.9548 35.1119 43.6234C35.1119 43.2921 34.8433 43.0234 34.5119 43.0234Z" fill="#9CA3AF"/>
<path d="M28.5317 43.0234H26.4555C26.1241 43.0234 25.8555 43.2921 25.8555 43.6234C25.8555 43.9548 26.1241 44.2234 26.4555 44.2234H28.5317C28.8631 44.2234 29.1317 43.9548 29.1317 43.6234C29.1317 43.2921 28.8631 43.0234 28.5317 43.0234Z" fill="#9CA3AF"/>
<path d="M22.5513 43.0234H20.475C20.1437 43.0234 19.875 43.2921 19.875 43.6234C19.875 43.9548 20.1437 44.2234 20.475 44.2234H22.5513C22.8826 44.2234 23.1513 43.9548 23.1513 43.6234C23.1513 43.2921 22.8826 43.0234 22.5513 43.0234Z" fill="#9CA3AF"/>
<path d="M16.5708 43.0234H14.4945C14.1632 43.0234 13.8945 43.2921 13.8945 43.6234C13.8945 43.9548 14.1632 44.2234 14.4945 44.2234H16.5708C16.9021 44.2234 17.1708 43.9548 17.1708 43.6234C17.1708 43.2921 16.9021 43.0234 16.5708 43.0234Z" fill="#9CA3AF"/>
</svg>
