<svg width="14" height="13" viewBox="0 0 14 13" fill="none" xmlns="http://www.w3.org/2000/svg">
<path d="M7.04824 3.60547C8.7709 3.60547 10.1928 5.02734 10.1928 6.75C10.1928 8.5 8.7709 9.89453 7.04824 9.89453C5.29824 9.89453 3.90371 8.5 3.90371 6.75C3.90371 5.02734 5.29824 3.60547 7.04824 3.60547ZM7.04824 8.80078C8.16934 8.80078 9.07168 7.89844 9.07168 6.75C9.07168 5.62891 8.16934 4.72656 7.04824 4.72656C5.8998 4.72656 4.99746 5.62891 4.99746 6.75C4.99746 7.89844 5.92715 8.80078 7.04824 8.80078ZM11.0404 3.49609C11.0404 3.90625 10.7123 4.23438 10.3021 4.23438C9.89199 4.23438 9.56387 3.90625 9.56387 3.49609C9.56387 3.08594 9.89199 2.75781 10.3021 2.75781C10.7123 2.75781 11.0404 3.08594 11.0404 3.49609ZM13.1186 4.23438C13.1732 5.24609 13.1732 8.28125 13.1186 9.29297C13.0639 10.2773 12.8451 11.125 12.1342 11.8633C11.4232 12.5742 10.5482 12.793 9.56387 12.8477C8.55215 12.9023 5.51699 12.9023 4.50527 12.8477C3.5209 12.793 2.67324 12.5742 1.93496 11.8633C1.22402 11.125 1.00527 10.2773 0.950586 9.29297C0.895898 8.28125 0.895898 5.24609 0.950586 4.23438C1.00527 3.25 1.22402 2.375 1.93496 1.66406C2.67324 0.953125 3.5209 0.734375 4.50527 0.679688C5.51699 0.625 8.55215 0.625 9.56387 0.679688C10.5482 0.734375 11.4232 0.953125 12.1342 1.66406C12.8451 2.375 13.0639 3.25 13.1186 4.23438ZM11.8061 10.3594C12.1342 9.56641 12.0521 7.65234 12.0521 6.75C12.0521 5.875 12.1342 3.96094 11.8061 3.14062C11.5873 2.62109 11.1771 2.18359 10.6576 1.99219C9.8373 1.66406 7.92324 1.74609 7.04824 1.74609C6.1459 1.74609 4.23184 1.66406 3.43887 1.99219C2.89199 2.21094 2.48184 2.62109 2.26309 3.14062C1.93496 3.96094 2.01699 5.875 2.01699 6.75C2.01699 7.65234 1.93496 9.56641 2.26309 10.3594C2.48184 10.9062 2.89199 11.3164 3.43887 11.5352C4.23184 11.8633 6.1459 11.7812 7.04824 11.7812C7.92324 11.7812 9.8373 11.8633 10.6576 11.5352C11.1771 11.3164 11.6146 10.9062 11.8061 10.3594Z" fill="#2C76CE"/>
</svg>
