<svg xmlns="http://www.w3.org/2000/svg" xmlns:xlink="http://www.w3.org/1999/xlink" width="100" zoomAndPan="magnify" viewBox="0 0 75 74.999997" height="100" preserveAspectRatio="xMidYMid meet" version="1.0"><defs><clipPath id="78234d6a3e"><path d="M 22.5 22.5 L 52.5 22.5 L 52.5 52.5 L 22.5 52.5 Z M 22.5 22.5 " clip-rule="nonzero"/></clipPath></defs><path fill="#000000" d="M 72.847656 65.140625 C 74.976562 67.269531 74.976562 70.722656 72.847656 72.847656 C 70.722656 74.976562 67.269531 74.976562 65.140625 72.847656 L 37.480469 45.1875 L 9.820312 72.847656 C 7.691406 74.976562 4.238281 74.976562 2.113281 72.847656 C -0.015625 70.722656 -0.015625 67.269531 2.113281 65.140625 L 29.773438 37.480469 L 2.113281 9.820312 C -0.015625 7.691406 -0.015625 4.238281 2.113281 2.113281 C 4.238281 -0.015625 7.691406 -0.015625 9.820312 2.113281 L 37.480469 29.773438 L 65.140625 2.113281 C 67.269531 -0.015625 70.722656 -0.015625 72.847656 2.113281 C 74.976562 4.238281 74.976562 7.691406 72.847656 9.820312 L 45.1875 37.480469 Z M 72.847656 65.140625 " fill-opacity="1" fill-rule="nonzero"/><g clip-path="url(#78234d6a3e)"><path fill="#000000" d="M 51.640625 48.554688 C 52.492188 49.40625 52.492188 50.789062 51.640625 51.640625 C 50.789062 52.492188 49.40625 52.492188 48.554688 51.640625 L 37.492188 40.574219 L 26.429688 51.640625 C 25.578125 52.492188 24.195312 52.492188 23.34375 51.640625 C 22.492188 50.789062 22.492188 49.40625 23.34375 48.554688 L 34.410156 37.492188 L 23.34375 26.429688 C 22.492188 25.578125 22.492188 24.195312 23.34375 23.34375 C 24.195312 22.492188 25.578125 22.492188 26.429688 23.34375 L 37.492188 34.410156 L 48.554688 23.34375 C 49.40625 22.492188 50.789062 22.492188 51.640625 23.34375 C 52.492188 24.195312 52.492188 25.578125 51.640625 26.429688 L 40.574219 37.492188 Z M 51.640625 48.554688 " fill-opacity="1" fill-rule="nonzero"/></g></svg>