<svg xmlns="http://www.w3.org/2000/svg" xmlns:xlink="http://www.w3.org/1999/xlink" width="113" zoomAndPan="magnify" viewBox="0 0 84.75 62.249996" height="83" preserveAspectRatio="xMidYMid meet" version="1.0"><defs><clipPath id="48ac859026"><path d="M 44 0 L 82.710938 0 L 82.710938 61.507812 L 44 61.507812 Z M 44 0 " clip-rule="nonzero"/></clipPath><clipPath id="ee6c87991b"><path d="M 1.9375 0 L 41 0 L 41 61.507812 L 1.9375 61.507812 Z M 1.9375 0 " clip-rule="nonzero"/></clipPath></defs><g clip-path="url(#48ac859026)"><path fill="#6b7280" d="M 61.769531 35.183594 C 65.597656 35.183594 69.121094 33.90625 71.96875 31.78125 C 71.6875 40.648438 64.832031 49.519531 51.308594 58.394531 L 53.316406 61.507812 C 72.914062 49.332031 82.710938 35.96875 82.710938 21.421875 C 82.710938 14.742188 80.894531 9.503906 77.257812 5.722656 C 73.621094 1.933594 69.015625 0.046875 63.449219 0.046875 C 57.878906 0.046875 53.390625 1.566406 49.976562 4.609375 C 46.5625 7.648438 44.851562 11.328125 44.851562 15.628906 C 44.851562 15.679688 44.859375 15.714844 44.859375 15.765625 C 44.757812 16.53125 44.683594 17.300781 44.683594 18.097656 C 44.683594 27.53125 52.335938 35.183594 61.769531 35.183594 Z M 61.769531 35.183594 " fill-opacity="1" fill-rule="nonzero"/></g><g clip-path="url(#ee6c87991b)"><path fill="#6b7280" d="M 6.523438 6.300781 C 6.300781 6.558594 6.035156 6.800781 5.832031 7.066406 C 3.3125 10.046875 1.785156 13.886719 1.785156 18.097656 C 1.785156 27.53125 9.4375 35.183594 18.871094 35.183594 C 23.191406 35.183594 27.125 33.566406 30.136719 30.917969 C 30.136719 31.023438 30.152344 31.113281 30.152344 31.222656 C 30.152344 40.277344 23.25 49.335938 9.441406 58.394531 L 11.445312 61.507812 C 31.046875 49.332031 40.84375 35.96875 40.84375 21.417969 C 40.84375 14.738281 39.027344 9.503906 35.386719 5.722656 C 31.753906 1.933594 27.148438 0.0390625 21.582031 0.0390625 C 16.015625 0.0390625 11.519531 1.5625 8.109375 4.609375 C 7.625 5.035156 7.25 5.511719 6.835938 5.964844 C 6.726562 6.074219 6.628906 6.1875 6.523438 6.300781 Z M 6.523438 6.300781 " fill-opacity="1" fill-rule="nonzero"/></g></svg>